<?xml version="1.0" encoding="utf-8"?>
<!-- Generator: Adobe Illustrator 24.1.1, SVG Export Plug-In . SVG Version: 6.00 Build 0)  -->
<svg version="1.1" id="Layer_1" xmlns="http://www.w3.org/2000/svg" xmlns:xlink="http://www.w3.org/1999/xlink" x="0px" y="0px"
	 viewBox="0 0 1000 1000" style="enable-background:new 0 0 1000 1000;" xml:space="preserve">
<style type="text/css">
	.st0{fill:#FFAA00;}
</style>
<path class="st0" fill="#FDA929" d="M224.8,268.7c0.3,29.3,14.8,58,39.8,78.7c1.6,1.5,5.8,3,11,3.1c0.1,0,0.2,0,0.2,0c7.1,0,13.3-4.2,15.5-10.4
	c2.4-6.4,0.8-14-4.1-19.8c-7.3-8.7-15.5-19.1-21.6-30.9c-14.6-31.4,2.5-48.2,22.2-67.6c17.8-17.5,38-37.4,37.4-72.4
	c-1.4-26.8-13.5-51.9-36-74.5c-4.6-4.5-9.9-7-15-7c-4.3,0-8.5,1.8-12,5.2c-7.4,7.3-6.8,17.6,1.7,27.5c8.8,10.4,15.3,19.9,19.9,28.9
	c16.2,32.4-6.6,53.3-24.9,70c-1.2,1.1-2.3,2.1-3.4,3.2C235.4,219.9,224.5,243.3,224.8,268.7z"/>
<path class="st0" fill="#FDA929" d="M389.7,269c0.3,28.9,15,58.1,39.2,78c4.6,3.4,11.3,4.4,17.2,2.6c4.9-1.5,8.5-4.8,10.1-9.3
	c2.4-6.5,0.6-14.5-4.7-20.7c-9.7-11.7-16.8-22.1-21.7-31.9c-13.4-30,3.4-46.5,22.9-65.7c17.9-17.6,38.3-37.6,37.4-72.6
	c-1.5-26.9-13.4-51.7-35.5-73.8c-4.9-5-10.2-7.7-15.6-7.7c-4.4,0-8.4,1.8-11.9,5.3c-7.3,7.3-6.6,17.6,1.9,27.7
	c19.5,23.3,27.1,39.8,25.1,55.3c-1.8,14.2-11.6,27.8-33.8,46.8C400.2,220,389.4,243.5,389.7,269z"/>
<path class="st0" fill="#FDA929" d="M554.7,267.7c-0.2,29.8,14.2,58.8,39.5,79.7l0,0c2,1.8,6.6,3.1,11.3,3.2c7,0.1,13.3-4.1,15.5-10.4
	c2.6-6.8,0.6-15-5.1-21c-19.3-22.2-27.3-38.9-26.1-54.2c1.2-15.1,11.3-29.6,33.7-48.5c21.4-20.4,30.9-41.7,31-68.8
	c-1.1-25.4-13.1-49.9-35.7-72.7c-4.1-4.2-8.8-6.7-13.5-7.1c-0.5-0.1-1.1-0.1-1.6-0.1c-4.3,0-8.4,1.8-11.9,5.2
	c-10.8,10.6-2.5,22.8,1.6,27.5c18.7,21.7,26.6,38.2,25.4,53.6c-1.1,14.7-10.6,28.8-30.7,45.9C566.7,217.4,554.8,241.4,554.7,267.7z"
	/>
<path d="M951.2,611.8c-1.2-34.1-14.7-64.9-38.3-86.7c-25-23.1-59.4-35-96.9-33.4c-4.2,0-8.6,0-13,0.1c-4.5,0-8.9,0.1-13.3,0.1h-1v-1
	c0.6-12.3,1.5-33-4.9-38.7c-3.5-3.5-9.4-5.2-18.1-5.2H113.1c-16.9,0-23.2,6.2-23.2,22.9c0.3,18.3,0.1,37.1-0.2,55.2
	c-0.6,47.5-1.3,96.7,8,144.1c19.3,93.3,78.4,169.7,175.7,227l3.1,1.9h-3.7c-52.5,0.1-114.4,0.1-164.2,0.1
	c-11.5,0-19.1,10.6-19.3,17.9c-0.1,3.3,1.6,8.7,5.6,12.8c2.2,2.3,5.9,4.9,11.4,4.9L769,934c5.4,0,10.5-2.2,14.3-6.1
	c3.4-3.5,5.3-7.9,5.1-11.7c-0.3-8.9-6.2-18.3-18.7-18.1c-26.9-0.1-60.8-0.1-93.6-0.1c-25.3,0-49.1,0-70.1,0h-3.3l27.1-17.7
	c26.1-16.3,49.7-35.6,70.3-57.3c20.7-22,38.5-46.8,52.8-73.6c3-5.6,10.5-8.7,16.4-8.9c9.7-0.3,19.5-0.3,29-0.3
	c12.4,0,25.1,0,37.8-0.6C905.6,734,953.9,680.4,951.2,611.8z M684,788.3c-35.7,41.2-83.7,72.7-138.7,91
	c-35.3,11.8-72,17.7-108.6,17.7c-24.2,0-48.3-2.6-71.9-7.8c-63.2-13.9-119.1-46.3-161.6-93.5c-64.8-69.6-78.1-137.9-77.5-230.8H752
	l-0.8,63.6C745.8,688.6,722.5,743.8,684,788.3z M752.4,530H125.6c-0.1-15.2,0-30.6,1.2-46l0.1-0.9H753L752.4,530z M911.6,645.3
	c-10.2,30.2-35.8,50.6-72,57.4h-0.2h-0.3c-7,0.6-14.5,0.8-22.1,0.8c-6.4,0-13-0.1-19.4-0.3c-8.1-0.2-16.4-0.3-24.2-0.2h-1.5l0.5-1.4
	c17.3-45.5,17-93.8,16.7-140.6c-0.1-9.8-0.1-19.9,0-29.7v-0.8l0.8-0.2c56.8-13,88.7,11.1,102.7,26.5
	C914.2,580.8,921.6,615.5,911.6,645.3z"/>
</svg>
