<?xml version="1.0" encoding="utf-8"?>
<!-- Generator: Adobe Illustrator 24.1.1, SVG Export Plug-In . SVG Version: 6.00 Build 0)  -->
<svg version="1.1" id="Layer_1" xmlns="http://www.w3.org/2000/svg" xmlns:xlink="http://www.w3.org/1999/xlink" x="0px" y="0px"
	 viewBox="0 0 1000 1000" style="enable-background:new 0 0 1000 1000;" xml:space="preserve">
<style type="text/css">
	.st0{fill:#FFAA00;}
</style>
<path d="M164.4,577.2c2.3,0.2,4.7,1,4.7,8.9c0,0.1,0,0.2,0,0.3h0.1c0,4.2,0,9.6,0,15.8c-0.1,26.9-0.2,71.9-0.2,105.8v2.5h36.2V584.2
	h24.5v126.3h37V584H751v126.4h36.9V584h24.5v126.5h36.2V708c0-58.6,0.2-110.8,0.3-124.4c0.1-2,2.3-5.4,3.5-5.5
	c26.1-1.7,26.4-21.9,26.7-38.2c0-1.7,0.1-3.3,0.1-4.9c0.1-3.9,0.2-5,0.2-5.4s0-0.4,0-0.8c0-0.4-0.1-1.4-0.2-5.5l-0.1-2.7
	c-0.6-23.2-1.1-43.3-47-44.6c-4.4-0.1-41.6-0.1-59.6,0c-2,0-3.8,0-5.1,0v-56.2c5-0.6,10.9-0.9,17.1-1.3c17.1-1,36.4-2.1,52.1-8.8
	c18.5-8,27.7-22.9,27.4-44.1c-0.3-16.6-0.2-33.5-0.1-49.8c0.1-11.3,0.1-23,0.1-34.4c-0.1-30.2-20.6-50.5-50.8-50.5
	c-200.2-0.1-404.9-0.1-608.3,0c-30.4,0-50.8,20.6-50.9,51.4v3.4c-0.1,27.2-0.2,55.2,0,82.9c0.2,21.1,10.8,35.8,31.7,43.6
	c17.3,6.4,38.6,7.1,54.1,7.6c4,0.1,7.5,0.2,10.6,0.4V476c-1.4,0-3.2,0-5.4,0c-17.4,0-53.6-0.1-57.2,0c-21.6,0.6-34.9,5.3-41.9,14.8
	c-6.4,8.6-7.1,20.2-7.3,34.4c0,2.2,0,4.4-0.1,6.5C138.1,555,137.9,575.2,164.4,577.2z M311.6,420.1v55.1h-24.5v-55.1H311.6z
	 M730.2,419.9v55.4h-24.1v-55.4H730.2z M669.2,420.3v55.2H348.5v-55.2H669.2z M828.1,369.8c0,8.5-27.8,14.2-69.2,14.2
	c-73.4,0-119.3,0-178,0h-71.7H432c-55.7,0-100.8,0-171.5,0c-62,0-71.3-10-71.3-15.9v-14.7c0-23.5,0-47.7,0-69.8
	c0-13,4.2-17.2,17-17.2c193,0,396.4,0,604.5,0c13,0,17.2,4.1,17.2,17C828.2,312.7,828.1,346.7,828.1,369.8z M843.5,539.8
	c0.2,2.8,0.3,4.9-0.4,5.7c-1.5,1.6-7.6,2.1-13.5,2.4H194.5c-17.4,0-20.5-3.1-20.5-20.5v-0.9c0-0.4,0.1-1.1,0.1-2
	c0.4-7.7,4.9-12.3,12.8-12.9c192.3-0.2,260.7-0.1,347.3-0.1c66.2,0,141.1,0.1,289.7,0c16.2,0,19.5,3.3,19.5,19.5
	C843.2,534.6,843.4,537.5,843.5,539.8z"/>
<path class="st0" fill="#FDA929" d="M948.8,756.3c-3.8-3.6-9-5.4-14.2-5.1L65,751.3c-5.2-0.2-10.1,1.6-13.9,5.3c-3.8,3.6-5.9,8.7-5.9,13.8
	c0,5.4,2.3,10.6,6.4,14.3c3.5,3.2,8.1,4.9,12.7,4.9c0.7,0,1.3,0,2-0.1h870.2l2.5-0.1v-0.2c9.1-1.5,15.9-9.4,15.9-18.8
	C954.9,765,952.7,759.9,948.8,756.3z"/>
</svg>
