<?xml version="1.0" encoding="utf-8"?>
<!-- Generator: Adobe Illustrator 24.1.1, SVG Export Plug-In . SVG Version: 6.00 Build 0)  -->
<svg version="1.1" id="Layer_1" xmlns="http://www.w3.org/2000/svg" xmlns:xlink="http://www.w3.org/1999/xlink" x="0px" y="0px"
	 viewBox="0 0 1000 1000" style="enable-background:new 0 0 1000 1000;" xml:space="preserve">
<style type="text/css">
	.st0{fill:#FFAA00;}
</style>
<path fill="#fff" d="M962.7,219.6c-6.7-7.4-11.8-10.6-17.1-10.7c-0.1,0-0.2,0-0.3,0c-5.3,0-10.8,3.1-18.1,10.5c-20.7,20.7-41.4,41.4-62.1,62.1
	c-46.9,46.9-95.3,95.4-143,143c-28.8,28.7-62.3,35.6-99.8,20.5c-10.8-4.4-17.1-2.9-24.9,5.9c-41.2,46.5-82.5,92.9-123.7,139.4
	c-30.5,34.4-61,68.8-91.6,103.2l-31.2,35.2c-45,50.7-91.6,103.2-137.5,154.7c-15.4,17.3-34.1,22.7-55.3,15.8
	c-17.6-5.6-30.4-19.6-34.2-37.3c-3.9-18.3,2.3-37,16.8-50c32.2-29,65.2-58.2,97.1-86.5C251.9,713,266,700.5,280,688
	c5.3-4.7,10.6-9.4,15.9-14.1c13.2-11.6,26.8-23.6,39.9-35.7c5.6-5.1,8.2-12,6.9-18.4c-1.2-6-5.5-10.8-11.8-13.1
	c-9-3.3-15.7,1.1-21,5.9c-22.3,19.8-44.6,39.6-66.9,59.4c-42.1,37.4-85.7,76-128.4,114.1c-17.6,15.7-27.1,35.8-28.3,59.6
	c-0.9,18.7,3.8,36.8,13.6,52.3c9.8,15.4,23.9,27.1,40.9,33.9c35.7,14.3,74,5.1,99.9-24.1c44.1-49.7,89-100.2,132.3-149.1
	c24.1-27.1,48.1-54.2,72.2-81.3c7.7-8.6,15.2-17.1,23.2-26c3.3-3.7,6.6-7.4,9.9-11.1l5.1,5.7c4.1,4.6,8,8.9,11.9,13.3
	c17.9,20.2,35.9,40.4,53.8,60.6c54.1,61,110.1,124,165,186.1c17.6,19.8,38.6,30.4,64.2,32.4c2,0.2,3.9,0.2,5.9,0.2
	c22.1,0,43.9-9.5,60.8-26.7c18.4-18.8,27.6-43.3,25.3-67.4c-2.5-25.4-14.4-46.8-37.7-67.3C765.7,718.3,698,658.2,632.4,600
	c-20.7-18.4-41.4-36.8-62.1-55.2c-1.1-1-2.1-2.1-3.1-3.2c-0.2-0.3-0.5-0.5-0.7-0.8c3.5-3.9,6.9-7.8,10.3-11.7
	c13.1-14.9,25.5-28.9,38.4-43c1.3-1.5,4.9-2.5,6.9-2c49.3,13,91.4,1,128.6-36.5c45-45.5,91-91.4,135.5-135.9
	c21.3-21.3,43.4-43.3,65-65c2.8-2.8,5.4-5.7,7.9-8.6c1.2-1.3,2.4-2.7,3.6-4l0.4-0.4V220L962.7,219.6z M502.9,612.5l39.1-44l25,22.2
	c18.3,16.2,36.4,32.3,54.5,48.4c16.9,15,33.8,30,50.7,45c46.8,41.5,95.1,84.4,142.6,126.6c22.7,20.2,25.6,51.7,6.7,73.4
	c-10.1,11.6-23.7,18-38.4,18c-0.1,0-0.2,0-0.3,0c-15,0-29.1-6.6-39.7-18.6c-29.5-33.1-59.3-66.8-88.3-99.4c-14-15.8-28-31.6-42-47.4
	L566,683.9c-19.7-22.1-39.3-44.3-59-66.4c-1-1.2-2-2.3-3.1-3.7C503.6,613.3,503.2,612.9,502.9,612.5z"/>
<path fill="#fff" d="M155.3,461.4c31.5,29,70.8,43,116.7,41.6c23.3-0.7,45.8-6.4,69-17.5c5.6,6.3,11.2,12.7,16.8,19
	c13.9,15.7,28.2,31.9,42.4,47.7c5.3,5.9,10.4,8.9,15.8,8.9c4.8,0,9.7-2.4,15-7.1c50.1-44.4,96.6-85.7,142.1-126.2
	c9.8-8.7,10.1-14.5,6.2-26.3c-3.4-10.2-6.4-20.2-7.1-30c-1.8-25.9,7.4-48.4,28-69c56.1-55.9,113-112.8,168-167.9l39.1-39.1
	c5.4-5.4,8.2-11.2,8.2-16.9c0-4.5-1.9-8.6-5.4-12c-8.1-7.8-18.6-6.8-28.2,2.8c-18.9,18.9-37.9,37.8-56.8,56.7
	c-50.4,50.2-102.4,102.2-153.3,153.6c-33.5,33.9-44,74.8-31.3,121.5c1.2,4.4,0.6,6.5-2.5,9.2c-12.7,11-25.4,22.3-37.8,33.2
	c-5.9,5.2-11.8,10.4-17.7,15.6c-1.1,1-2.3,1.8-3.6,2.7c-0.3,0.2-0.7,0.5-1,0.7L417.4,409c0.1-0.3,0.3-0.7,0.4-1
	c0.4-1.1,0.8-2,1.2-2.9c28-64.6,20.4-124.5-22.6-177.9c-27.2-33.8-63.6-62.6-111.2-88.2c-44.9-24.1-87.6-35.1-130.6-33.6
	c-53.3,1.9-97.2,35.8-111.7,86.3c-8.2,28.4-7.8,58.6,1,92.3C61.2,350.4,97.7,408.4,155.3,461.4z M381.6,398
	c-8.8,15.9-7.8,21.2,5.9,33.5c14.7,13.1,29.2,26,44.6,39.6c6.1,5.4,12.2,10.8,18.5,16.4l-32.8,29.2c-1.6-1.8-3.2-3.5-4.7-5.2
	c-4.3-4.7-8.3-9.1-12.3-13.6c-5.2-5.8-10.3-11.6-15.4-17.4c-8.1-9.1-16.4-18.5-24.7-27.7c-5.3-5.9-9.8-8.7-15.1-8.7
	c-3.7,0-7.8,1.4-12.8,4.1c-57.8,31.4-119.5,22-165-25.1c-44.4-46-72.9-92.5-86.9-142.2c-8.4-29.6-9.3-55.4-2.7-79.1
	c9.2-33.3,38-56.5,73.4-59.3c35-2.7,69.7,5.2,109.1,24.9c39.5,19.7,74.4,46.1,103.9,78.4C402.2,287.1,409.1,348.3,381.6,398z"/>
<path class="st0" fill="#FDA929" d="M663.8,285.5c-2.5,2.5-4.2,5.9-5.2,8.1c-0.4,0.7-0.7,1.3-0.9,1.7l-0.2,0.3v0.4c-0.5,10.4,2.9,16.8,10.6,20.1
	c2.5,1.1,5.1,1.7,7.5,1.7c5,0,9.9-2.3,14.5-6.9c22-22,44-44,66-66c33.5-33.5,68.1-68.1,102.1-102.2c9.1-9.2,9.8-19.4,1.9-27.5
	c-3.7-3.7-8-5.7-12.5-5.7h-0.1c-5.1,0-10.3,2.5-15,7.2C770.8,178.2,715.6,233.4,663.8,285.5z"/>
<path class="st0" fill="#FDA929" d="M710.6,331.6c-2.6,2.6-4.3,6.1-5.4,8.6c-0.4,0.8-0.7,1.5-1,2l-0.2,0.4v0.4c0.3,10.4,3.9,16.4,11.7,19.6
	c2.4,1,4.6,1.4,6.6,1.4c6.3,0,11.2-3.9,15.7-8.4c42.3-42.4,84.7-84.7,127-127l38.6-38.6c0.2-0.2,0.5-0.5,0.7-0.7
	c0.6-0.6,1.3-1.2,1.8-1.9c7.8-8.6,8.1-18.7,0.8-26.2c-3.4-3.5-7.8-5.4-12.5-5.5h-0.1c-5.1,0-10.2,2.3-14.3,6.4
	C829.9,212,770.6,271.2,710.6,331.6z"/>
</svg>
