<?xml version="1.0" encoding="utf-8"?>
<!-- Generator: Adobe Illustrator 24.1.1, SVG Export Plug-In . SVG Version: 6.00 Build 0)  -->
<svg version="1.1" id="Layer_1" xmlns="http://www.w3.org/2000/svg" xmlns:xlink="http://www.w3.org/1999/xlink" x="0px" y="0px"
	 viewBox="0 0 1000 1000" style="enable-background:new 0 0 1000 1000;" xml:space="preserve">
<style type="text/css">
	.st0{fill:#FFAA00;}
</style>
<path d="M781.6,551.7c0-2.7-0.2-6.2-1.3-9.5c-2.8-8-11.2-12.8-19.7-11.3c-9.1,1.7-15,8.9-15,18.5c0,13.3,0,65.1,0,110.8
	c0,36.1,0,70.2,0,80.6c0,18.5-11.5,30-29.9,30c-153.7,0-294.9,0-431.5,0c-18.1,0-29.7-11.7-29.7-29.7c0-195.1,0-396.7,0-599.3
	c0-18.4,11.5-29.8,30.1-29.8c127.5,0,278.4,0,431.1,0c3.4,0,6.5,0.3,9.1,1c13.1,3.2,20.9,14.2,20.9,29.4c0,71.2,0,142.4,0,213.7
	v113.1c0,0.4,0,0.9,0,1.3c0,1.4,0,2.8,0.1,4.2c0.9,8.6,7.4,15.2,15.8,16.1c8.4,1,16.2-3.8,18.9-11.6c1.1-3.1,1.2-6.5,1.2-9
	c0.1-15.7,0.1-31.6,0-47V409v-74.6c0-64,0-127.9,0-191.9c0-18.8-6.6-35.8-18.6-47.8c-12-12.1-29-18.7-47.7-18.7h-41.6
	c-127.6,0-259.6,0-389.4,0.1c-5.8,0-10.7,0.5-15.1,1.4c-30.9,6.7-50.8,32.2-50.8,65c0,74.6,0,149.2,0,223.9V441v49.2
	c0,83.3,0,166.5,0,249.8c0,4.5,0.1,9.4,1,14.1c5.9,31.6,31.6,52.8,63.9,52.8c7.3,0,14.5,0,21.8,0v117.2h35V806.8
	c10.8,0,21.6,0,32.4,0c20.1,0,40.3,0,60.4,0h60.4h63.8c34.3,0,68.5,0,102.8,0v115.3h35V806.8c7.3,0,14.5,0,21.8,0
	c32.3,0,58-21.3,63.9-52.9c0.9-4.5,1-9.2,1-13.2C781.7,718.4,781.7,575.2,781.6,551.7z"/>
<path d="M457.3,488.1c5.4,0,10.7,0,16.1,0c13.4,0,27.3,0,40.9-0.1c8.2-0.1,14.8-0.5,20.8-1.2C619.3,476,679,398.3,668.2,313.7
	c-4.6-36.2-22.2-69.8-49.3-94.5c-27.2-24.8-62.3-38.9-98.6-39.7c-30.4-0.7-61.2-0.5-91-0.3c-12.4,0.1-25.3,0.1-37.9,0.1
	c-3.1,0-6.2,0.3-9,0.8c-31,5.9-51.9,31.2-52,63c-0.1,23.3,0,47,0,69.9c0,10.4,0,20.8,0,31.2V430c0,69.7,0,139.3,0,209
	c0,19.9,8.5,38.3,23.2,50.4c11.1,9.1,25.1,14,39.5,14c4.3,0,8.6-0.4,12.9-1.3c28.8-5.7,49.7-31.6,49.7-61.5
	c0.1-35.5,0.1-71.5,0-106.4c0-14.8,0-29.5,0-44.3V488L457.3,488.1L457.3,488.1z M441.8,452c-7-0.2-12.5,1.7-16.4,5.5
	s-5.8,9.3-5.8,16.4c0.3,49.7,0.2,100.2,0.2,149v16.9c0,12.2-5.4,20.7-16.1,25.4c-10.2,4.5-19.8,2.9-28.5-4.6
	c-5.2-4.5-8.1-10.4-8.6-17.5c-0.1-1.9-0.2-3.9-0.2-5.7c0-25.6,0-51.2,0-76.7V441.4c0-18.4,0-36.8,0-55.1
	c0.1-46.2,0.1-93.9-0.2-140.9c-0.1-8.7,2.8-16.3,8.4-21.8c5.4-5.3,12.8-8.3,21-8.3c0.2,0,0.4,0,0.6,0c27,0.5,54.4,0.4,80.9,0.3
	c12.1,0,24.6-0.1,36.9-0.1c58.6,0.1,107,40.4,117.7,98.1c11.4,61.4-30.7,123.7-91.9,135.9c-8.1,1.6-17.1,2.5-26.9,2.7
	C493.6,452.3,467.9,452.6,441.8,452z"/>
<path class="st0"  fill="#FDA929" d="M522.7,398.3c34.7-3.9,59.3-33.7,57.4-69.4c-1.8-33.1-30.7-60-64.3-60.2c-24-0.1-48.4,0-72,0h-4.9
	c-11.7,0-18.9,7.3-19,19c0,10.4,0,20.7,0,31.1c0,4.9,0,9.9,0,14.8v11.7c0,11.2,0,22.5,0,33.7c0,12.7,7.3,19.9,20,19.9
	c10.2,0,20.1,0,29.7,0c15.4,0,29.9,0,44,0C516.4,398.8,519.5,398.6,522.7,398.3z M464.1,362.8H456v-58.1c4.8,0,9.6,0,14.4,0
	c14.7,0,29.9-0.1,44.9,0.1c14.7,0.1,27.1,11.3,28.8,25.9c1.6,14.4-7.9,27.8-22.2,31.3c-2.2,0.5-4.7,0.8-7.3,0.8
	C497.7,362.8,480.7,362.8,464.1,362.8z"/>
</svg>
