<?xml version="1.0" encoding="utf-8"?>
<!-- Generator: Adobe Illustrator 24.1.1, SVG Export Plug-In . SVG Version: 6.00 Build 0)  -->
<svg version="1.1" id="Layer_1" xmlns="http://www.w3.org/2000/svg" xmlns:xlink="http://www.w3.org/1999/xlink" x="0px" y="0px"
	 viewBox="0 0 1000 1000" style="enable-background:new 0 0 1000 1000;" xml:space="preserve">
<style type="text/css">
	.st0{fill:#FFAA00;}
</style>
<polygon points="500,178.1 95.8,461.2 117.8,492.6 195.7,438.1 195.7,634.6 195.8,634.6 195.8,634.9 294.5,634.9 294.5,596.5 
	234.1,596.5 234.1,411.2 500,225 765.9,411.2 765.9,596.5 705.3,596.5 705.3,634.9 804,634.9 804,634.6 804.3,634.6 804.3,438.1 
	882.2,492.6 904.2,461.2 "/>
<rect x="578" y="596.5" width="98.7" height="38.4"/>
<rect x="322" y="596.5" width="98.7" height="38.4"/>
<rect x="450.6" y="596.5" width="98.7" height="38.4"/>
<rect x="578" y="783.4" width="98.7" height="38.4"/>
<rect x="322" y="783.4" width="98.7" height="38.4"/>
<rect x="450.6" y="783.4" width="98.7" height="38.4"/>
<polygon points="765.9,783.5 705.3,783.5 705.3,821.9 804,821.9 804,821.6 804.3,821.6 804.3,673.7 765.9,673.7 "/>
<polygon points="195.7,821.6 195.8,821.6 195.8,821.9 294.5,821.9 294.5,783.5 234.1,783.5 234.1,673.7 195.7,673.7 "/>
<polygon class="st0" points="282.5,436.4 282.5,548.1 717.5,548.1 717.5,436.4 500,284 "/>
</svg>
