<?xml version="1.0" encoding="utf-8"?>
<!-- Generator: Adobe Illustrator 24.1.1, SVG Export Plug-In . SVG Version: 6.00 Build 0)  -->
<svg version="1.1" id="Layer_1" xmlns="http://www.w3.org/2000/svg" xmlns:xlink="http://www.w3.org/1999/xlink" x="0px" y="0px"
	 viewBox="0 0 1000 1000" style="enable-background:new 0 0 1000 1000;" xml:space="preserve">
<style type="text/css">
	.st0{fill:#FFAA00;}
</style>
<path class="st0" d="M805.4,502c-13.8-11.7-32.3-18.1-52.3-18.1c-0.2,0-0.5,0-0.7,0h-0.2H752c-15.3,0-29.5,0-42.7,0
	c-44.9,0-79.4,0-112.7-0.1c-32.8,0-63.9-0.1-103.8-0.1c-66.6,0-146.5,0.1-251.5,0.3c-15.1,0.4-30.1,5.8-42.1,15.3
	c-11.6,9.1-19.2,21.3-21.5,34.3c-3.7,20.6-4.3,69.1-4.8,104.5c0,1.2,0,2.4,0,3.6H826c0-35,0-77.7-0.1-98.5
	C825.1,523,814.3,509.6,805.4,502z"/>
<path d="M904.6,538.4C900,472,858.6,429.8,795,411.8c-17.5-5.1-36.4-5.5-55.7-8.2c0.1-31.1,0.1-62.4,0-95.6c0-23.2-0.1-45.8,0-64.3
	c-0.1-52.9-35.2-88-88.1-88c-183.5-0.1-118.1-0.1-301.6,0c-53.6,0-88.5,35-88.6,88.7c0,18.5,0,40.7,0,63.6c0,33.4-0.1,65.1,0,96.5
	c-16.8,1.7-32.4,1.8-47.4,5.1C143.4,425,96.1,483.7,95.8,555.7c0.5,54.5,0.6,54.5,0.6,231.1H175v50.8h35v-50.8l579-0.4v53.2h35
	v-53.2h80.6C904.6,597.7,904.6,597.7,904.6,538.4z M348.8,188.7c183.8,0,118.7,0,302.5,0c34.5,0,54.8,20.2,54.9,54.3
	c0.1,50,0.1,111.8,0,162.4l-80.6-0.3c0,1,0.5-23.8,0.4-32.1c0-10.5-0.2,8.5-0.8,0.6c-0.8-11.2-0.5-25.2-6.1-34.8
	c-8.3-14.2-26.6-18.5-43.1-18.6c-49.6-0.2-99.1-0.4-148.7,0.1c-37.9,0.6-50.4,33.5-49.7,52.7c0,8.2,0.1,33.3,0.1,32.1h-83.2
	c-0.1-30.2-0.2-62.5-0.3-97.1c-0.1-26-0.2-50.3-0.2-64.9C294.1,208.9,314.4,188.7,348.8,188.7z M592.5,372.9
	c0,10.8-0.1,21.4-0.1,32.3c-60.5,0-120.2,0-181.5,0c0-10.9-0.1-21.5-0.1-32.3c0-11.3,0,7.4,0.3-4c0.2-9.6,7.1-15.6,17.2-15.6
	c48.9-0.2,97.8-0.2,146.6,0c10.2,0,17,6,17.3,15.5C592.5,380.1,592.5,361.5,592.5,372.9z M133.5,525.7c9-49.9,56.4-85.5,107.3-86.6
	c313.4-0.7,321.4-0.1,511.2-0.2c62.5-0.5,117,42.1,118.9,103.5c0.2,31.2,0.1,112.5,0.1,144.4c-330.8,0-411.5,0-744.1,0
	C128.8,649.4,127,561.8,133.5,525.7z M871.1,752.4H129.2v-31.3h741.9L871.1,752.4L871.1,752.4z"/>
</svg>
