<?xml version="1.0" encoding="utf-8"?>
<!-- Generator: Adobe Illustrator 21.0.0, SVG Export Plug-In . SVG Version: 6.00 Build 0)  -->
<svg version="1.1" id="Layer_2" xmlns="http://www.w3.org/2000/svg" xmlns:xlink="http://www.w3.org/1999/xlink" x="0px" y="0px"
	 viewBox="0 0 275.6 207.1" style="enable-background:new 0 0 275.6 207.1;" xml:space="preserve">
<style type="text/css">
	.st0{stroke:#000000;stroke-width:4;stroke-miterlimit:10;}
</style>
<g id="Privacy">
	<path class="st0" d="M213.8,21.9L136.7,4H136L59,21.9c-0.7,0.2-1.2,0.8-1.2,1.5v81.1c0,32.9,18.1,63.3,47.4,79.3l30.4,19.1
		c0.2,0.2,0.5,0.3,0.8,0.3s0.5-0.1,0.8-0.2l34.4-18.4l0,0c27.1-16.4,43.6-45.6,43.4-77V23.4C215,22.7,214.5,22,213.8,21.9z
		 M211.9,107.5c0.1,30.2-15.8,58.3-41.8,74.2l-33.7,18l-29.7-18.6c-28.3-15.5-45.9-44.9-45.8-76.8V24.6l75.5-17.4l75.5,17.4V107.5z"
		/>
	<path class="st0" d="M70.8,101.1c0.9,0,1.6-0.7,1.6-1.6v-6.2c0-0.9-0.7-1.6-1.6-1.6s-1.6,0.7-1.6,1.6v6.2
		C69.3,100.3,70,101.1,70.8,101.1z"/>
	<path class="st0" d="M70.8,88.7c0.9,0,1.6-0.7,1.6-1.6v-6.2c0-0.9-0.7-1.6-1.6-1.6s-1.6,0.7-1.6,1.6v6.3C69.3,88,70,88.7,70.8,88.7
		z"/>
	<path class="st0" d="M70.8,76.3c0.9,0,1.6-0.7,1.6-1.6v-6.2c0-0.9-0.7-1.6-1.6-1.6s-1.6,0.7-1.6,1.6v6.2
		C69.3,75.6,70,76.3,70.8,76.3z"/>
	<path class="st0" d="M71.4,113.5c0.9-0.1,1.5-0.9,1.4-1.7l0,0c-0.2-2-0.3-4-0.3-6.2c0-0.9-0.7-1.6-1.5-1.6h-0.1
		c-0.9,0-1.6,0.7-1.5,1.6l0,0c0,2,0.1,4.1,0.4,6.2c0.1,0.8,0.7,1.4,1.5,1.4L71.4,113.5z"/>
	<path class="st0" d="M197,133.6c-0.8-0.3-1.7,0.1-2,0.9l0,0c-0.8,1.8-1.6,3.7-2.5,5.5c-0.4,0.8-0.1,1.7,0.7,2
		c0.2,0.1,0.5,0.2,0.7,0.2c0.6,0,1.1-0.3,1.4-0.9c1-1.8,1.9-3.8,2.6-5.7C198.2,134.9,197.8,134,197,133.6z"/>
	<path class="st0" d="M117.5,26.2h0.4l6.1-1.5c0.9-0.2,1.4-1.1,1.2-1.9c-0.2-0.9-1.1-1.4-1.9-1.2l-6.1,1.5c-0.9,0.1-1.5,0.9-1.4,1.8
		C115.8,25.6,116.6,26.3,117.5,26.2z"/>
	<path class="st0" d="M75,123.6c-0.5-1.9-1-3.9-1.4-5.9c-0.2-0.9-1-1.5-1.9-1.3c-0.9,0.2-1.4,1-1.3,1.8c0.4,2,0.8,4.1,1.4,6.2
		c0.2,0.7,0.8,1.2,1.5,1.2h0.4c0.8-0.2,1.4-1,1.2-1.8C75,123.7,75,123.7,75,123.6z"/>
	<path class="st0" d="M79.1,135c-0.8-1.8-1.6-3.7-2.3-5.5c-0.3-0.8-1.2-1.2-2-1l0,0c-0.8,0.3-1.2,1.2-1,1.9c0.7,1.9,1.5,3.9,2.4,5.8
		c0.2,0.6,0.8,0.9,1.4,0.9c0.2,0,0.5,0,0.7-0.2C79.2,136.7,79.5,135.8,79.1,135z"/>
	<path class="st0" d="M70.8,63.9c0.9,0,1.6-0.7,1.6-1.6v-6.2c0-0.9-0.7-1.6-1.6-1.6s-1.6,0.7-1.6,1.6v6.2
		C69.3,63.3,70,63.9,70.8,63.9z"/>
	<path class="st0" d="M93.1,31.8h0.4l6.1-1.6c0.8-0.2,1.4-1.1,1.2-1.8c-0.2-0.8-1-1.4-1.9-1.2l-6.3,1.5c-0.8,0.2-1.4,1-1.2,1.8
		c0,0,0,0,0,0.1C91.5,31.3,92.2,31.9,93.1,31.8z"/>
	<path class="st0" d="M105.3,29h0.3l6.1-1.5c0.8-0.2,1.4-1.1,1.2-1.8c-0.2-0.9-1-1.4-1.9-1.2l0,0l-6.3,1.5c-0.9,0.1-1.5,0.9-1.4,1.8
		c0.1,0.9,0.9,1.5,1.8,1.4L105.3,29z"/>
	<path class="st0" d="M201.9,44.6c0.9,0,1.6-0.7,1.6-1.6v-6.2c0-0.9-0.7-1.6-1.6-1.6c-0.9,0-1.6,0.7-1.6,1.6V43
		C200.3,43.9,201,44.6,201.9,44.6z"/>
	<path class="st0" d="M80.8,34.7h0.4l6.1-1.5c0.9-0.2,1.4-1.1,1.2-1.9c-0.2-0.9-1.1-1.4-1.9-1.2l-6.1,1.4c-0.8,0.2-1.4,1.1-1.2,1.8
		C79.4,34.2,80.1,34.7,80.8,34.7z"/>
	<path class="st0" d="M70.8,51.6c0.9,0,1.6-0.7,1.6-1.6v-6.2c0-0.9-0.7-1.6-1.6-1.6s-1.6,0.7-1.6,1.6V50
		C69.3,50.9,70,51.6,70.8,51.6z"/>
	<path class="st0" d="M70.8,39.2c0.9,0,1.6-0.7,1.6-1.6v-1.1L75,36c0.8-0.2,1.4-1.1,1.2-1.8c-0.2-0.8-1-1.4-1.9-1.2l-3.8,0.9
		c-0.7,0.2-1.2,0.8-1.2,1.6v2.3C69.3,38.5,70,39.2,70.8,39.2L70.8,39.2z"/>
	<path class="st0" d="M166.2,28.7l6.3,1.5h0.3c0.9,0.1,1.7-0.5,1.8-1.4s-0.5-1.7-1.4-1.8l-6.1-1.5c-0.8-0.2-1.7,0.3-1.9,1.1
		c0,0,0,0,0,0.1C164.9,27.6,165.4,28.5,166.2,28.7z"/>
	<path class="st0" d="M178.4,31.5l6.3,1.5h0.4c0.7,0,1.4-0.5,1.5-1.2c0.2-0.8-0.3-1.7-1.1-1.8c0,0,0,0-0.1,0l-6.1-1.5
		c-0.8-0.2-1.7,0.4-1.9,1.2C177.2,30.5,177.6,31.3,178.4,31.5z"/>
	<path class="st0" d="M190.7,34.4l6.3,1.5h0.3c0.9,0.1,1.7-0.5,1.7-1.4c0.1-0.9-0.5-1.7-1.4-1.8l-6.1-1.5c-0.9-0.2-1.7,0.3-1.9,1.2
		c-0.2,0.9,0.3,1.8,1.2,1.9H190.7z"/>
	<path class="st0" d="M153.9,25.9l6.1,1.5h0.4c0.7,0,1.4-0.5,1.5-1.2c0.2-0.9-0.3-1.7-1.2-1.8l0,0l-6.1-1.5
		c-0.9-0.2-1.7,0.3-1.9,1.2S153.1,25.7,153.9,25.9L153.9,25.9L153.9,25.9z"/>
	<path class="st0" d="M141.7,23.1l6.3,1.5h0.4c0.9,0.1,1.7-0.5,1.7-1.4c0.1-0.9-0.5-1.7-1.4-1.8l-6.1-1.4c-0.8-0.2-1.7,0.3-1.9,1.1
		c0,0,0,0,0,0.1C140.4,22,140.9,22.8,141.7,23.1z"/>
	<path class="st0" d="M135.6,18.9l-6.3,1.5c-0.9,0.1-1.5,0.9-1.4,1.8s0.9,1.5,1.7,1.4h0.4l6.4-1.6c0.9-0.2,1.4-1.1,1.2-1.9
		C137.4,19.1,136.5,18.6,135.6,18.9L135.6,18.9z"/>
	<path class="st0" d="M201,118.7h0.2c0.8,0,1.5-0.6,1.6-1.4c0.3-2,0.5-4.2,0.6-6.2c0-0.9-0.6-1.6-1.5-1.7c-0.8-0.1-1.6,0.6-1.7,1.4
		c0,0,0,0,0,0.1c0,2-0.3,4.1-0.6,6.2C199.6,118,200.2,118.6,201,118.7z"/>
	<path class="st0" d="M201.9,81.7c0.9,0,1.6-0.7,1.6-1.6v-6.2c0-0.9-0.7-1.6-1.6-1.6c-0.9,0-1.6,0.7-1.6,1.6v6.2
		C200.3,81,201,81.7,201.9,81.7z"/>
	<path class="st0" d="M201.9,94c0.9,0,1.6-0.7,1.6-1.6v-6.2c0-0.9-0.7-1.6-1.6-1.6c-0.9,0-1.6,0.7-1.6,1.6v6.2
		C200.3,93.3,201,94,201.9,94z"/>
	<path class="st0" d="M201.9,69.3c0.9,0,1.6-0.7,1.6-1.6v-6.2c0-0.9-0.7-1.6-1.6-1.6c-0.9,0-1.6,0.7-1.6,1.6v6.2
		C200.3,68.6,201,69.3,201.9,69.3z"/>
	<path class="st0" d="M197,128.8c-0.2,0.8,0.2,1.7,1,1.9c0.2,0,0.3,0,0.5,0c0.7,0,1.3-0.4,1.5-1.1c0.6-2,1.2-4.1,1.6-6.2
		c0.2-0.9-0.4-1.7-1.2-1.8c-0.9-0.2-1.7,0.4-1.9,1.2l0,0C198.1,124.9,197.6,126.9,197,128.8z"/>
	<path class="st0" d="M201.9,106.4c0.9,0,1.6-0.7,1.6-1.6v-6.2c0-0.9-0.7-1.6-1.6-1.6c-0.9,0-1.6,0.7-1.6,1.6v6.2
		C200.3,105.7,201,106.4,201.9,106.4z"/>
	<path class="st0" d="M201.9,56.9c0.9,0,1.6-0.7,1.6-1.6v-6.1c0-0.9-0.7-1.6-1.6-1.6c-0.9,0-1.6,0.7-1.6,1.6v6.2
		C200.3,56.3,201,56.9,201.9,56.9z"/>
	<path class="st0" d="M101.8,81.3c0,15,9.6,28.3,23.9,33.4c-17.5,3-32.9,13.1-42.4,27.8c-0.4-0.7-0.9-1.5-1.3-2.1
		c-0.4-0.8-1.4-1-2.2-0.6c-0.8,0.4-1,1.4-0.6,2.1c0.8,1.6,1.8,3.1,2.8,4.4l0,0c0.2,0.3,0.4,0.6,0.6,1l0.2,0.2
		c1.1,1.6,2.2,3.1,3.4,4.6c0,0.1,0.1,0.2,0.2,0.3c0.3,0.4,0.7,0.8,1.1,1.3c0.3,0.4,0.8,0.9,1.2,1.4c0.4,0.4,1.3,1.6,2,2.2h0.2
		c1.4,1.5,2.8,2.8,4.2,4.2v0.2c0.5,0.4,1,0.9,1.5,1.3c0.5,0.4,1.5,1.3,2.3,1.8c0.8,0.6,0.7,0.7,1.1,1l0,0c1.6,1.3,3.3,2.4,5,3.5l0,0
		h0.2c1.4,0.9,2.8,1.7,4.3,2.5l10.4,6.5l1.1,0.7l0,0l14.3,9c0.5,0.3,1.1,0.3,1.6,0l7.1-3.8l0,0l5.5-3.1l0,0l5.9-2.2l0,0l5.5-3.1l0,0
		l5.5-3.1l0,0c1.4-0.9,2.7-1.8,4-2.6l0,0l0.8-0.6c1.2-0.9,2.3-1.7,3.4-2.5l0.9-0.7v-0.2c1.5-1.3,3.1-2.6,4.4-4h0.2
		c0.5-0.5,1-1.1,1.5-1.7c0.5-0.6,1.4-1.4,2-2.1c0.6-0.7,0.6-0.6,0.8-0.9c0-0.1,0-0.2,0-0.3c1.3-1.5,2.5-3.1,3.6-4.6c0,0,0,0,0.2-0.2
		s0.3-0.5,0.5-0.8c0.9-1.3,1.7-2.5,2.5-3.8l0,0l0.5-0.7c0.5-0.7,0.3-1.7-0.5-2.1c0,0,0,0-0.1,0c-0.1-0.1-0.2-0.2-0.3-0.3
		c-9-15.2-24.1-26-41.6-29.6c19-6.1,29.3-26.2,23.1-44.9s-26.7-28.8-45.6-22.7C111.8,52.3,101.8,65.9,101.8,81.3z M188.5,146.8
		l-1.2,1.8c-1.8,2.6-3.8,5.2-5.9,7.6l-2,2.1c-2.1,2.1-4.2,4.1-6.5,6c-1.1,1-2.3,1.8-3.5,2.7c-1.2,0.9-2.9,2-4.3,2.9l-14.4,7.7
		l-2.1,1.1l0,0l-11.9,6.2l-2.9-1.8l0,0l-5.3-3.1l0,0l-5.3-3.3l0,0l-5.4-3.3l0,0l-5.3-3.3l0,0l-1-0.6c-1.4-0.8-2.7-1.6-4.1-2.4
		c-2.2-1.4-4.3-2.8-6.3-4.5l-2.2-1.8c-2.7-2.3-5.2-4.8-7.6-7.4l-1.1-1.3c-1.8-2-3.4-4.3-5-6.5c16.9-27.8,53.6-37,82-20.3
		c8.9,5.3,16.3,12.7,21.4,21.6L188.5,146.8L188.5,146.8z M137.9,48.9c18.2,0,33,14.5,33,32.5s-14.8,32.5-33,32.5s-33-14.5-33-32.5
		C104.9,63.4,119.7,48.9,137.9,48.9z"/>
</g>
</svg>
