<?xml version="1.0" ?><svg viewBox="0 0 64 64" xmlns="http://www.w3.org/2000/svg"><g data-name="Layer 32" id="Layer_32"><path d="M60,7a1,1,0,0,0-1-1H13V2a1,1,0,0,0-1-1H8A7.009,7.009,0,0,0,1,8V50a7.009,7.009,0,0,0,7,7H31.622A17.978,17.978,0,0,0,60,35.072ZM49,27.464V19h9V32.584A17.979,17.979,0,0,0,49,27.464ZM27.464,41h-3.2l5.546-16H43v2.118A18.028,18.028,0,0,0,27.464,41ZM44,23H29.1a1,1,0,0,0-.946.673l-6.239,18A1,1,0,0,0,22.86,43h4.258A18.1,18.1,0,0,0,27,45H21.47a1,1,0,0,0-.945.672L17.289,55H14.405l7.57-21.812a1,1,0,0,0-.471-1.209L13,27.4V24.675l9.016,4.856a1,1,0,0,0,1.419-.552L30.711,8H33.6L29.546,19.672A1,1,0,0,0,30.49,21H44a1,1,0,0,0,1-1V8h2v6a1,1,0,0,0,1,1H58v2H48a1,1,0,0,0-1,1v9.118A18.1,18.1,0,0,0,45,27V24A1,1,0,0,0,44,23ZM35.711,8H43V19H31.9ZM58,13H49V8h9ZM28.6,8,21.931,27.213,13,22.4V8ZM3,8A5.006,5.006,0,0,1,8,3h3V43H8a6.973,6.973,0,0,0-5,2.111ZM3,50a5.006,5.006,0,0,1,5-5h4a1,1,0,0,0,1-1V29.674l6.807,3.663L12.289,55H8A5.006,5.006,0,0,1,3,50Zm16.405,5,2.777-8h4.936a17.878,17.878,0,0,0,2.926,8ZM45,61A16,16,0,1,1,61,45,16.019,16.019,0,0,1,45,61Z"/><path d="M53,35H48V33a1,1,0,0,0-1-1H43a1,1,0,0,0-1,1v8H37a1,1,0,0,0-.6.2l-4,3a1,1,0,0,0,0,1.6l4,3a1,1,0,0,0,.6.2h5v8a1,1,0,0,0,1,1h4a1,1,0,0,0,1-1V43h5a1,1,0,0,0,.6-.2l4-3a1,1,0,0,0,0-1.6l-4-3A1,1,0,0,0,53,35ZM37.333,47l-2.666-2,2.666-2H42v4ZM46,56H44V34h2Zm6.667-15H48V37h4.667l2.666,2Z"/></g></svg>