<?xml version="1.0" encoding="utf-8"?>
<!-- Generator: Adobe Illustrator 24.1.1, SVG Export Plug-In . SVG Version: 6.00 Build 0)  -->
<svg version="1.1" id="Layer_1" xmlns="http://www.w3.org/2000/svg" xmlns:xlink="http://www.w3.org/1999/xlink" x="0px" y="0px"
	 viewBox="0 0 1000 1000" style="enable-background:new 0 0 1000 1000;" xml:space="preserve">
<style type="text/css">
	.st0{fill:#FFAA00;}
</style>
<polygon class="st0" points="665.4,567.4 432.1,334 402.4,363.7 635.8,597 649.8,583 "/>
<polygon class="st0" points="596.9,635.9 363.6,402.5 334.2,431.9 567.5,665.3 581.5,651.2 "/>
<path d="M476.3,796.5c-9.7,9.8-15.1,22.7-15.1,36.4s5.2,26.6,14.9,36.5c3.9,4,7.9,8.1,12,12.1c4,4,8.2,8.1,12.3,12.1
	c20.4,19.9,52.4,19.9,72.8,0c3.2-3.1,6.3-6.2,9-9l0.1-0.1c2.8,2.8,5.5,5.5,8.2,8.2c7.6,7.6,15.4,15.4,23.1,23.1
	c21.2,20.9,53.1,20.8,74.3-0.2l65.3-65.3l1.4,1.4c1.1,1.1,2.1,2.1,3.1,3.1c1.4,1.4,2.7,2.7,4,3.9c21.7,21.4,53.3,21.3,75-0.2
	c8.2-8.1,15.4-15.4,22.1-22.1c21-21.2,21.1-53.2,0.3-74.3c-2.5-2.5-5-5.1-7.7-7.7l-1.1-1.1l66.3-66.3c18.8-19,19.9-50.9,2.4-69.8
	c-8.1-8.8-16.5-17-25.4-25.7l-0.2-0.2c-2.9-2.9-5.9-5.8-8.9-8.8l0.3-0.3c2.8-2.8,6-5.9,9.1-9.1c19.4-19.9,19.4-52.3,0.1-72.1
	c-6-6.2-12.2-12.3-18.2-18.2l-4.7-4.6c-22.5-22.4-54-22.4-76.5,0.1L476.3,796.5z M551.3,858.2c-12.5,12.5-16.6,12.5-29.3-0.2
	c-1.1-1.1-2.3-2.3-3.4-3.4L518,854c-3-2.9-6.3-6.3-9.5-9.5c-8.3-8.6-8.3-14.5-0.1-22.9c15.9-16,32.2-32.2,47.9-47.9l0.2-0.2
	c6.5-6.5,13-13,19.5-19.5l131.6-131.7c37.3-37.3,74.6-74.6,111.8-111.8c11-11,15.9-11,27.1,0.2c1.6,1.6,3.1,3.1,4.7,4.6
	c1.7,1.7,3.4,3.3,5.1,5c2.5,2.5,4.6,4.6,6.4,6.6c6,6.5,6.1,12.7,0,19.5c-1,1.1-2.1,2.2-3.2,3.3l-0.2,0.2c-0.5,0.4-0.9,0.9-1.4,1.3
	L814.1,595L551.3,858.2z M828.4,809.3c-4.4,4.6-9,9.2-13.5,13.6l1.1,1.1l0,0l-1.2-1l-3.4,3.3c-9.8,9.7-15.1,9.6-25-0.1
	c-1.2-1.2-2.4-2.4-3.8-3.8l-0.8-0.8l39.7-39.7l0.9,0.9c2,2,3.9,3.9,5.7,5.8C835.1,795.9,835.2,802.1,828.4,809.3z M884,662.1
	c-27,27.1-54.2,54.3-80.6,80.7l1.1,1.1l-1.1-1.1c-10.1,10.1-20.3,20.3-30.4,30.4l-21.6,21.6c-28.9,28.9-57.7,57.7-86.6,86.6
	c-12,12-16.3,11.9-28.5-0.3c-1.4-1.4-2.8-2.8-4.2-4.2c-3.3-3.3-6.7-6.6-10-10c-7.9-8.2-7.9-14.2,0-22.1
	c15.4-15.5,31.1-31.2,46.3-46.4l0.2-0.2c6.3-6.3,12.7-12.6,19-19l38.4-38.4c38.4-38.4,76.9-76.9,115.3-115.3
	c12.4-12.4,16.5-12.4,29.2,0.3c1.4,1.3,2.7,2.7,4.1,4c1.4,1.4,2.8,2.8,4.3,4.3c1.7,1.7,3.4,3.5,5.1,5.2
	C892.3,647.8,892.3,653.8,884,662.1z"/>
<path d="M523,203.6c20.5-20.6,20.6-52.9,0.3-73.6c-7.5-7.6-15.4-15.5-23.5-23.5c-20.6-20.3-52.9-20.3-73.6,0c-3,3-6,5.9-8.6,8.6
	l-0.2,0.2c-2.5-2.5-5-5-7.5-7.5l-0.6-0.6c-7.7-7.7-15.6-15.6-23.5-23.5c-20.6-20.3-53-20.3-73.6,0.2l-65.7,65.7l-1.2-1.2
	c-2.3-2.3-4.4-4.4-6.5-6.5c-10.7-10.6-24.1-16.4-37.9-16.4c-13.7,0-27.2,5.9-37.9,16.5c-6,5.9-12.6,12.5-20.7,20.7
	c-22.5,22.6-22.6,54-0.4,76.5c1.2,1.2,2.4,2.4,3.6,3.6c1,1,2,2,3.1,3.1l0.7,0.7l-66.6,66.7c-18.1,18.4-19.8,48.6-3.8,67.3
	c8.2,9.6,17.1,18.2,26.6,27.3c3.2,3.1,6.4,6.2,9.7,9.4l-0.4,0.4c-2.6,2.6-5.3,5.3-8.1,8.1c-20.9,21.2-21,53.2-0.2,74.3
	c6.3,6.4,12.7,12.8,18.9,18.9l2.5,2.5c23.1,23,54.1,22.9,77.2-0.1L523,203.6z M170.6,191.7c5.3-5.8,11-11.3,16.5-16.7l2.4-2.4
	c8.5-8.3,14.3-8.3,22.9,0.1c0.9,0.9,1.9,1.8,2.8,2.8l2.5,2.6L178,217.8l-1-1c-2.5-2.4-4.8-4.6-6.8-7
	C165.2,203.8,165.3,197.6,170.6,191.7z M126.5,371.3l-0.7-0.7c-3.4-3.3-6.8-6.8-10.2-10.2c-8.3-8.5-8.3-14.5,0-22.8
	c27-27.1,54.4-54.4,80.8-80.8c10.1-10.1,20.2-20.2,30.2-30.2l28.9-28.9c26.7-26.7,53.4-53.4,80.1-80c11-11,15.8-11,27.1,0.3
	c1.3,1.3,2.7,2.7,4,4c1.7,1.6,3.3,3.3,5,5c2.3,2.3,4.1,4.2,5.8,5.9c7.9,8.2,7.9,14.2,0,22.1c-12,12.1-24.2,24.4-36.1,36.2l-0.1,0.1
	c-5,5-10,10-15,15L285,247.6c-42.5,42.5-84.9,84.9-127.4,127.4c-11.6,11.6-16,11.5-27.8-0.3C128.7,373.5,127.6,372.4,126.5,371.3z
	 M288.9,380.4c-36.2,36.2-72.5,72.5-108.8,108.7c-11.1,11.1-15.9,11-27.1-0.2c-1.6-1.6-3.1-3.1-4.7-4.6l-0.1-0.1
	c-3.8-3.7-7.7-7.6-11.4-11.5c-6.1-6.5-6.1-12.7-0.1-19.5c1-1.1,2.1-2.2,3.3-3.3c0.5-0.5,1-1,1.5-1.5l27.9-27.9l279-279
	c12.5-12.5,16.6-12.5,29.2,0.2c1.2,1.2,2.5,2.4,3.7,3.7l0.3,0.3c1.4,1.4,2.9,2.8,4.3,4.3c1.7,1.7,3.5,3.5,5.1,5.2
	c8.3,8.6,8.4,14.5,0.1,22.9c-14.2,14.3-28.7,28.8-42.8,42.9c-5.9,5.9-11.8,11.8-17.7,17.7L288.9,380.4z"/>
</svg>
