<?xml version="1.0" encoding="utf-8"?>
<!-- Generator: Adobe Illustrator 21.0.0, SVG Export Plug-In . SVG Version: 6.00 Build 0)  -->
<svg version="1.1" id="Layer_2" xmlns="http://www.w3.org/2000/svg" xmlns:xlink="http://www.w3.org/1999/xlink" x="0px" y="0px"
	 viewBox="0 0 512 512" style="enable-background:new 0 0 512 512;" xml:space="preserve">
<g id="Rulers_1_">
	<g>
		<g>
			<path d="M297.6,394.4H117.3V16h-7.4H73.7H18.4v480h11.1h87.7h180.4V394.4z M282.9,409.6v13.8H117.3v-13.8H282.9z M117.3,438.5
				h165.6v13.4H117.3V438.5z M73.7,31.2h28.8v72H88v15.2h14.5v13.9H73.7v15.2h0.4v0.5h28.4v15.5H88v15.2h14.5V194H73.7v15.2h28.8v12
				H88v15.2h14.5v12H73.7v15.2h28.8v13.9H88v15.2h14.5v13.9H73.7v15.2h28.8v13.9H88v15.2h14.5v13.9H73.7v15.2h28.8v19.1l-69.3,71.8
				V31.2H73.7z M44.2,480.8l58.3-60.4v60.4H44.2z M117.3,480.8v-13.8h165.6v13.8H117.3z"/>
			<path d="M67.8,86.5c11.6,0,21-9.7,21-21.6s-9.4-21.6-21-21.6s-21,9.7-21,21.6C46.8,76.8,56.3,86.5,67.8,86.5z M67.8,58.5
				c3.4,0,6.2,2.9,6.2,6.4c0,3.5-2.8,6.4-6.2,6.4c-3.4,0-6.2-2.9-6.2-6.4C61.6,61.4,64.4,58.5,67.8,58.5z"/>
		</g>
		<path d="M436.6,76.1L203.7,315.3l59.4,61.1L496,137.1L436.6,76.1z M224.6,315.3l15.5-15.9l10.5,10.8l10.4-10.7l-10.5-10.8l8.9-9.1
			l20.8,21.4l10.4-10.7l-20.8-21.4l9.1-9.3l10.4,10.7l10.4-10.7l-10.4-10.7l9.3-9.5l20.4,20.9l10.4-10.7l-20.4-20.9l8.3-8.5
			l10.3,10.5l10.4-10.7l-10.3-10.5l8.3-8.5l20.4,20.9l10.4-10.7l-20.4-20.9l9.6-9.8l10.3,10.5l10.4-10.7l-10.3-10.5l9.6-9.8
			l20.4,20.9l10.4-10.7L386.5,149l9.6-9.8l10.3,10.5l10.4-10.7l-10.3-10.5l9.6-9.8l20.4,20.9l10.4-10.7l-20.4-20.9l10.1-10.4
			l38.6,39.6l-212,217.8L224.6,315.3z"/>
		<g>
			<path d="M205.5,77.4v112.1L314.6,77.4C314.6,77.4,205.5,77.4,205.5,77.4z M220.2,92.6h58.7l-58.7,60.3V92.6z"/>
			<path d="M190.8,30.1h-22.4H161v269.2L423,30.1H190.8z M175.8,235.7h10.9v-15.2h-10.9v-12.1h19.7v-15.2h-19.7v-12.1h10.9v-15.2
				h-10.9v-12.1h19.7v-15.2h-19.7v-12.1h10.9v-15.2h-10.9V99.7h19.7V84.5h-19.7V72.4h10.9V57.3h-10.9V45.2h15h196.6L175.8,262.6
				V235.7z"/>
		</g>
	</g>
</g>
</svg>
