<?xml version="1.0" encoding="utf-8"?>
<!-- Generator: Adobe Illustrator 21.0.0, SVG Export Plug-In . SVG Version: 6.00 Build 0)  -->
<svg version="1.1" id="Layer_3" xmlns="http://www.w3.org/2000/svg" xmlns:xlink="http://www.w3.org/1999/xlink" x="0px" y="0px"
	 viewBox="0 0 512 512" style="enable-background:new 0 0 512 512;" xml:space="preserve">
<g id="Layer_x0020_1">
	<path d="M65.8,45.8L441.4,7.1c7.3-0.8,13.6,5,13.6,12.3l0,471.2c0,6.8-5.5,12.4-12.4,12.4c-125.5,0-251,0-376.5,0
		c-6.8,0-12.4-5.5-12.4-12.4V58.2C53.7,51.5,59.1,46,65.8,45.8z M219.4,138.6v48.1h69.9v-48.1C289.3,138.6,219.4,138.6,219.4,138.6z
		 M194.6,186.7v-48.1h-58.4v48.1H194.6z M219.4,252.8v48.1h69.9v-48.1H219.4z M194.6,300.9v-48.1h-58.4v48.1H194.6z M314.1,138.6
		v48.1h58.4v-48.1H314.1z M314.1,252.8v48.1h58.4v-48.1H314.1z M123.8,113.8c87,0,174.1,0,261.1,0c6.8,0,12.4,5.5,12.4,12.4v72.9
		c0,6.8-5.5,12.4-12.4,12.4c-87,0-174.1,0-261.1,0c-6.8,0-12.4-5.6-12.4-12.4v-72.9C111.4,119.4,117,113.8,123.8,113.8z M123.8,228
		c87,0,174.1,0,261.1,0c6.8,0,12.4,5.5,12.4,12.4v72.9c0,6.8-5.5,12.4-12.4,12.4c-87,0-174.1,0-261.1,0c-6.8,0-12.4-5.6-12.4-12.4
		v-72.9C111.4,233.6,117,228,123.8,228z M280.8,478.2v-91.8h-52.9v91.8H280.8z M203.1,478.2V374c0-6.8,5.6-12.4,12.4-12.4h77.7
		c6.8,0,12.4,5.5,12.4,12.4v104.2h124.6V33.1L78.5,69.4v408.8C78.5,478.2,203.1,478.2,203.1,478.2z"/>
</g>
</svg>
