<?xml version="1.0" encoding="utf-8"?>
<!-- Generator: Adobe Illustrator 21.0.0, SVG Export Plug-In . SVG Version: 6.00 Build 0)  -->
<svg version="1.1" id="Layer_3" xmlns="http://www.w3.org/2000/svg" xmlns:xlink="http://www.w3.org/1999/xlink" x="0px" y="0px"
	 viewBox="0 0 512 512" style="enable-background:new 0 0 512 512;" xml:space="preserve">
<g id="Bed">
	<path d="M476.1,239.8h-16.9V76.7c0-26.3-22.3-47.7-49.8-47.7l0,0H102.6c-27.5,0-49.8,21.3-49.8,47.7v163.1H35.9
		C26.6,239.8,19,247,19,256v145.9c0,9,7.6,16.2,16.9,16.2h16.9v48.6c0,9,7.6,16.2,16.9,16.2h67.7c9.3,0,16.9-7.3,16.9-16.2v-48.6
		h203.1v48.6c0,9,7.6,16.2,16.9,16.2h67.7c9.3,0,16.9-7.3,16.9-16.2v-48.6h16.9c9.3,0,16.9-7.3,16.9-16.2V256
		C493,247,485.4,239.8,476.1,239.8z M86.7,76.7c0-8.4,7.1-15.2,15.9-15.2l0,0h306.7c8.8,0,15.9,6.8,15.9,15.2v0v163.1h-25.4V173
		c0-9-7.6-16.2-16.9-16.2H129c-9.3,0-16.9,7.3-16.9,16.2v66.8H86.7V76.7z M146,239.8v-50.6h93.1v50.6H146z M272.9,189.2H366v50.6
		h-93.1V189.2z M69.8,272.2h389.4v26.4H52.9v-26.4H69.8z M120.6,450.6H86.7v-32.4h33.9V450.6z M425.3,450.6h-33.9v-32.4h33.9V450.6z
		 M52.9,385.7v-54.6h406.3v54.6H52.9z"/>
</g>
</svg>
