<?xml version="1.0" ?><svg xmlns="http://www.w3.org/2000/svg" xmlns:xlink="http://www.w3.org/1999/xlink" version="1.1" viewBox="0 0 275.627 207.121" style="enable-background:new 0 0 275.627 207.121;" xml:space="preserve"><g id="police_car_x2C__vahicle_x2C__police_x2C__car_x2C__front_vehicle"><g><path style="fill:#1A1413;" d="M202.929,113.824v22.312c0,1.933,1.567,3.5,3.5,3.5h38.706c1.615,0,3.021-1.106,3.401-2.676    l5.506-22.715c0.254-1.048,0.011-2.155-0.66-3.001c-0.671-0.844-1.695-1.32-2.773-1.323l-44.212,0.402    C204.477,110.342,202.929,111.903,202.929,113.824z M209.929,117.293l36.252-0.33l-3.8,15.674h-32.453V117.293z"/><path style="fill:#1A1413;" d="M68.084,139.637c1.933,0,3.5-1.567,3.5-3.5v-22.312c0-1.921-1.548-3.483-3.469-3.5l-45.941-0.402    c-1.1-0.054-2.112,0.484-2.782,1.337c-0.67,0.852-0.908,1.967-0.643,3.018l5.722,22.715c0.392,1.556,1.79,2.646,3.394,2.646    H68.084z M64.584,117.294v15.343H30.592l-3.948-15.675L64.584,117.294z"/><path style="fill:#1A1413;" d="M150.951,118.619l12,0.036c0.004,0,0.007,0,0.011,0c1.928,0,3.494-1.561,3.5-3.489    c0.006-1.933-1.557-3.505-3.489-3.511l-12-0.036c-0.004,0-0.007,0-0.011,0c-1.928,0-3.494,1.56-3.5,3.489    C147.456,117.042,149.018,118.613,150.951,118.619z"/><path style="fill:#1A1413;" d="M126.951,118.547l12,0.036c0.004,0,0.007,0,0.011,0c1.928,0,3.494-1.56,3.5-3.489    c0.006-1.934-1.557-3.505-3.489-3.511l-11.999-0.036c-0.004,0-0.007,0-0.011,0c-1.928,0-3.494,1.561-3.5,3.489    C123.456,116.97,125.019,118.541,126.951,118.547z"/><path style="fill:#1A1413;" d="M174.951,118.691l12,0.036c0.004,0,0.007,0,0.011,0c1.928,0,3.494-1.561,3.5-3.489    c0.006-1.934-1.557-3.505-3.489-3.511l-12-0.036c-0.004,0-0.007,0-0.011,0c-1.928,0-3.494,1.561-3.5,3.489    C171.456,117.114,173.018,118.686,174.951,118.691z"/><path style="fill:#1A1413;" d="M102.951,118.475l12,0.036c0.004,0,0.007,0,0.011,0c1.928,0,3.494-1.561,3.5-3.489    c0.006-1.934-1.557-3.505-3.489-3.511l-12-0.036c-0.004,0-0.007,0-0.011,0c-1.928,0-3.494,1.561-3.5,3.489    C99.456,116.898,101.019,118.469,102.951,118.475z"/><path style="fill:#1A1413;" d="M78.951,118.402l12,0.036c0.004,0,0.007,0,0.011,0c1.928,0,3.494-1.561,3.5-3.489    c0.006-1.934-1.557-3.505-3.489-3.511l-12-0.036c-0.004,0-0.007,0-0.011,0c-1.928,0-3.494,1.56-3.5,3.489    C75.456,116.825,77.019,118.396,78.951,118.402z"/><path style="fill:#1A1413;" d="M102.951,130.871l12,0.036c0.004,0,0.007,0,0.011,0c1.928,0,3.494-1.561,3.5-3.489    c0.006-1.934-1.557-3.505-3.489-3.511l-12-0.036c-0.004,0-0.007,0-0.011,0c-1.928,0-3.494,1.561-3.5,3.489    C99.456,129.294,101.019,130.865,102.951,130.871z"/><path style="fill:#1A1413;" d="M174.951,131.087l12,0.036c0.004,0,0.007,0,0.011,0c1.928,0,3.494-1.561,3.5-3.489    c0.006-1.934-1.557-3.505-3.489-3.511l-12-0.036c-0.004,0-0.007,0-0.011,0c-1.928,0-3.494,1.561-3.5,3.489    C171.456,129.51,173.018,131.081,174.951,131.087z"/><path style="fill:#1A1413;" d="M78.951,130.799l12,0.036c0.004,0,0.007,0,0.011,0c1.928,0,3.494-1.561,3.5-3.489    c0.006-1.934-1.557-3.505-3.489-3.511l-12-0.036c-0.004,0-0.007,0-0.011,0c-1.928,0-3.494,1.561-3.5,3.489    C75.456,129.222,77.019,130.793,78.951,130.799z"/><path style="fill:#1A1413;" d="M150.951,131.015l12,0.036c0.004,0,0.007,0,0.011,0c1.928,0,3.494-1.561,3.5-3.489    c0.006-1.934-1.557-3.505-3.489-3.511l-12-0.036c-0.004,0-0.007,0-0.011,0c-1.928,0-3.494,1.56-3.5,3.489    C147.456,129.438,149.018,131.009,150.951,131.015z"/><path style="fill:#1A1413;" d="M126.952,130.943l11.999,0.035c0.003,0,0.007,0,0.01,0c1.928,0,3.494-1.56,3.5-3.49    c0.006-1.933-1.557-3.504-3.49-3.51l-12-0.035c-1.959-0.001-3.504,1.558-3.51,3.49    C123.456,129.366,125.019,130.938,126.952,130.943z"/><path style="fill:#1A1413;" d="M78.951,143.608l12,0.036c0.004,0,0.007,0,0.011,0c1.928,0,3.494-1.561,3.5-3.489    c0.006-1.934-1.557-3.505-3.489-3.511l-12-0.036c-0.004,0-0.007,0-0.011,0c-1.928,0-3.494,1.56-3.5,3.489    C75.456,142.03,77.019,143.602,78.951,143.608z"/><path style="fill:#1A1413;" d="M126.951,143.752l12,0.036c0.004,0,0.007,0,0.011,0c1.928,0,3.494-1.56,3.5-3.489    c0.006-1.934-1.557-3.505-3.489-3.511l-11.999-0.036c-0.004,0-0.007,0-0.011,0c-1.928,0-3.494,1.56-3.5,3.489    C123.456,142.175,125.019,143.746,126.951,143.752z"/><path style="fill:#1A1413;" d="M150.951,143.824l12,0.036c0.004,0,0.007,0,0.011,0c1.928,0,3.494-1.561,3.5-3.489    c0.006-1.934-1.557-3.505-3.489-3.511l-12-0.036c-0.004,0-0.007,0-0.011,0c-1.928,0-3.494,1.56-3.5,3.489    C147.456,142.247,149.018,143.818,150.951,143.824z"/><path style="fill:#1A1413;" d="M102.951,143.68l12,0.036c0.004,0,0.007,0,0.011,0c1.928,0,3.494-1.561,3.5-3.489    c0.006-1.934-1.557-3.505-3.489-3.511l-12-0.036c-0.004,0-0.007,0-0.011,0c-1.928,0-3.494,1.561-3.5,3.489    C99.456,142.103,101.019,143.674,102.951,143.68z"/><path style="fill:#1A1413;" d="M174.951,143.896l12,0.036c0.004,0,0.007,0,0.011,0c1.928,0,3.494-1.56,3.5-3.489    c0.006-1.934-1.557-3.505-3.489-3.511l-12-0.036c-0.004,0-0.007,0-0.011,0c-1.928,0-3.494,1.561-3.5,3.489    C171.456,142.319,173.018,143.891,174.951,143.896z"/><path style="fill:#1A1413;" d="M243.322,152.894h-28.336c-3.617,0-6.733,2.159-8.146,5.252c-1.413-3.094-4.529-5.252-8.146-5.252    H79.252c-3.447,0-6.441,1.959-7.938,4.821c-1.498-2.861-4.491-4.821-7.938-4.821H35.039c-4.94,0-8.959,4.018-8.959,8.959v1.065    c0,4.94,4.019,8.959,8.959,8.959h28.336c3.447,0,6.44-1.96,7.938-4.821c1.498,2.861,4.491,4.821,7.938,4.821h119.442    c3.617,0,6.733-2.159,8.146-5.252c1.413,3.093,4.529,5.252,8.146,5.252h28.336c4.94,0,8.959-4.019,8.959-8.959v-1.065    C252.281,156.912,248.262,152.894,243.322,152.894z M65.334,162.918c0,1.061-0.897,1.959-1.958,1.959H35.039    c-1.062,0-1.959-0.898-1.959-1.959v-1.065c0-1.062,0.897-1.959,1.959-1.959h28.336c1.062,0,1.958,0.897,1.958,1.959V162.918z     M200.653,162.918c0,1.061-0.897,1.959-1.959,1.959H79.252c-1.062,0-1.959-0.898-1.959-1.959v-1.065    c0-1.062,0.897-1.959,1.959-1.959h119.442c1.062,0,1.959,0.897,1.959,1.959V162.918z M245.281,162.918    c0,1.061-0.897,1.959-1.959,1.959h-28.336c-1.061,0-1.958-0.898-1.958-1.959v-1.065c0-1.062,0.897-1.959,1.958-1.959h28.336    c1.062,0,1.959,0.897,1.959,1.959V162.918z"/><path style="fill:#1A1413;" d="M178.464,55.462c0.86,0,1.721-0.314,2.397-0.95l11.435-10.752c1.408-1.324,1.477-3.539,0.152-4.947    c-1.325-1.408-3.539-1.477-4.947-0.152l-11.435,10.752c-1.408,1.324-1.477,3.539-0.152,4.947    C176.602,55.092,177.532,55.462,178.464,55.462z"/><path style="fill:#1A1413;" d="M177.885,70.743c0.82,0,1.644-0.287,2.309-0.871l28.132-24.729c1.452-1.276,1.594-3.488,0.318-4.94    c-1.276-1.451-3.487-1.594-4.939-0.318l-28.132,24.729c-1.452,1.276-1.594,3.488-0.318,4.939    C175.947,70.341,176.914,70.743,177.885,70.743z"/><path style="fill:#1A1413;" d="M264.685,75.803c8.067,0,10.941-4.388,10.941-8.494c0-6.862-8.047-15.245-17.438-15.245h-17.464    c-1.933,0-3.5,1.567-3.5,3.5v6.785c-4.023-9.348-8.841-20.801-11.392-27.815c-4.621-12.707-14.425-14.38-19.347-13.46h-1.809    c0.197-0.737,0.312-1.508,0.312-2.307V8.959c0-4.94-4.019-8.959-8.959-8.959h-33.248c-2.542,0-4.835,1.069-6.467,2.775    C154.683,1.069,152.391,0,149.849,0h-25.907c-2.258,0-4.318,0.846-5.896,2.23C116.469,0.846,114.409,0,112.151,0H78.903    c-4.94,0-8.959,4.019-8.959,8.959v9.808c0,0.818,0.12,1.607,0.326,2.361c-15.523,0.764-19.052,10.292-19.642,12.396L38.403,64.287    v-8.17c0-1.933-1.567-3.5-3.5-3.5H17.438c-4.207,0-8.606,1.796-12.07,4.926C2.007,60.582,0,64.44,0,67.862    c0,4.107,2.875,8.494,10.941,8.494c9.479,0,16.608-0.136,20.461-0.232v2.825L11.43,98.515c-0.503,0.492-0.845,1.124-0.983,1.813    c-0.224,1.118-5.443,27.696-2.527,54.777c2.421,22.486,4.663,26.808,15.208,26.77c-0.001,0.013-0.002,0.024-0.003,0.037    c-0.128,1.62-0.274,3.457-0.274,5.412c0,1.442,0.079,2.744,0.241,3.979c0.231,1.763,1.735,3.045,3.466,3.045    c0.151,0,0.305-0.01,0.459-0.029c1.917-0.252,3.267-2.009,3.015-3.926c-0.122-0.93-0.181-1.934-0.181-3.069    c0-1.679,0.134-3.368,0.252-4.859c0.018-0.224,0.031-0.43,0.048-0.649c6.201,0.123,19.411,0.568,34.74,1.093    c0.013,0.173,0.037,0.337,0.043,0.515c0.064,1.892,1.617,3.383,3.496,3.383c0.039,0,0.079-0.001,0.119-0.002    c1.932-0.064,3.445-1.684,3.381-3.615c0-0.014-0.003-0.026-0.003-0.04c27.178,0.93,57.037,1.938,68.39,1.938    c11.547,0,40.476-1.3,66.463-2.477c-0.006,0.481-0.012,0.982-0.012,1.513c0,2.851,0.167,6.588,1.465,10.217    c0.512,1.43,1.859,2.321,3.295,2.321c0.392,0,0.79-0.066,1.18-0.206c1.82-0.651,2.767-2.654,2.116-4.475    c-0.936-2.614-1.056-5.572-1.056-7.857c0-0.541,0.007-1.058,0.013-1.544c0.001-0.101,0.001-0.187,0.003-0.286    c16.375-0.74,29.947-1.337,33.966-1.337c0.228,0,0.448-0.004,0.672-0.007c0.323,1.659,1.771,2.835,3.422,2.835    c0.181,0,0.364-0.015,0.549-0.044c1.775-0.279,3.009-1.849,2.935-3.602c6.911-1.973,9.748-8.168,10.791-25.193    c1.244-20.321-2.343-51.763-2.496-53.092c-0.089-0.772-0.433-1.493-0.977-2.049l-18.481-18.858c0.035-0.2,0.062-0.403,0.062-0.613    v-1.278c0-0.003,0-0.005,0-0.008v-3.476C248.077,75.667,255.206,75.803,264.685,75.803z M244.224,59.064h13.964    c5.606,0,10.438,5.53,10.438,8.245c0,1.349-2.756,1.494-3.941,1.494c-9.568,0-16.707-0.139-20.461-0.233V59.064z M160.823,8.959    c0-1.061,0.897-1.959,1.959-1.959h33.248c1.062,0,1.959,0.898,1.959,1.959v9.808c0,1.062-0.897,1.959-1.959,1.959h-33.248    c-1.062,0-1.959-0.897-1.959-1.959V8.959z M121.983,8.959c0-1.061,0.897-1.959,1.959-1.959h25.907    c1.062,0,1.959,0.898,1.959,1.959v9.808c0,1.062-0.897,1.959-1.959,1.959h-25.907c-1.062,0-1.959-0.897-1.959-1.959V8.959z     M76.944,8.959C76.944,7.898,77.841,7,78.903,7h33.248c1.062,0,1.959,0.898,1.959,1.959v9.808c0,1.062-0.897,1.959-1.959,1.959    H78.903c-1.062,0-1.959-0.897-1.959-1.959V8.959z M57.211,35.913c0.076-0.19,0.12-0.322,0.162-0.522    c0.074-0.299,1.965-7.317,14.908-7.317h134.561c0.265,0,0.529-0.03,0.787-0.09c0.314-0.073,7.769-1.662,11.625,8.942    c4.167,11.46,13.907,33.723,17.188,41.162L40.607,77.695L57.211,35.913z M10.941,69.357C9.756,69.357,7,69.211,7,67.862    c0-1.136,0.958-3.224,3.062-5.126c2.193-1.982,4.882-3.119,7.376-3.119h13.964v9.506C27.648,69.218,20.508,69.357,10.941,69.357z     M259.13,154.517c-1.19,19.44-3.349,19.44-11.381,19.44c-4.607,0-20.834,0.735-39.623,1.587    c-25.026,1.134-56.173,2.545-67.808,2.545c-11.654,0-44.648-1.13-71.16-2.037c-19.883-0.681-37.056-1.269-41.643-1.269    c-1.191,0-2.283,0.038-3.29,0.074c-4.314,0.154-4.784-0.025-5.482-1.107c-1.876-2.904-3.005-11.434-3.862-19.394    c-2.484-23.064,1.316-46.465,2.238-51.614l18.433-18.057l202.873,0.407l18.373,18.748    C257.442,109.812,260.204,136.977,259.13,154.517z"/><path style="fill:#1A1413;" d="M44.066,200.113c-4.19-0.102-7.467-0.872-9.74-2.288c-1.639-1.023-3.799-0.522-4.822,1.118    c-1.022,1.641-0.522,3.799,1.119,4.821c3.349,2.088,7.815,3.214,13.273,3.347c0.029,0.001,0.058,0.001,0.086,0.001    c1.894,0,3.451-1.512,3.498-3.415C47.527,201.765,45.999,200.16,44.066,200.113z"/><path style="fill:#1A1413;" d="M67.083,191.746c-1.596-1.089-3.774-0.675-4.863,0.922c-1.817,2.668-4.407,4.655-7.698,5.906    c-1.807,0.686-2.715,2.708-2.028,4.515c0.531,1.398,1.861,2.258,3.272,2.258c0.414,0,0.834-0.074,1.243-0.23    c4.657-1.769,8.356-4.633,10.996-8.508C69.094,195.012,68.681,192.834,67.083,191.746z"/><path style="fill:#1A1413;" d="M251.779,188.823c-1.793-0.718-3.832,0.153-4.551,1.947c-1.276,3.186-3.34,5.595-6.133,7.159    c-1.687,0.945-2.288,3.078-1.343,4.765c0.642,1.145,1.831,1.79,3.057,1.79c0.579,0,1.166-0.145,1.707-0.447    c4.165-2.334,7.35-6.021,9.21-10.663C254.445,191.58,253.574,189.542,251.779,188.823z"/><path style="fill:#1A1413;" d="M231.248,200.121h-0.18c-0.003,0-0.006,0-0.009,0c-4.115,0-7.527-0.578-10.14-1.718    c-1.771-0.773-3.834,0.037-4.607,1.808c-0.773,1.771,0.037,3.835,1.809,4.607c3.502,1.527,7.854,2.302,12.938,2.302    c0.003,0,0.007,0,0.01,0h0.179c1.933,0,3.5-1.567,3.5-3.5C234.748,201.689,233.181,200.121,231.248,200.121z"/></g></g><g id="Capa_1"/></svg>