<?xml version="1.0" encoding="utf-8"?>
<!-- Generator: Adobe Illustrator 21.0.0, SVG Export Plug-In . SVG Version: 6.00 Build 0)  -->
<svg version="1.1" id="Layer_2" xmlns="http://www.w3.org/2000/svg" xmlns:xlink="http://www.w3.org/1999/xlink" x="0px" y="0px"
	 viewBox="0 0 275.6 207.1" style="enable-background:new 0 0 275.6 207.1;" xml:space="preserve">
<g id="field">
	<path d="M259.3,13H16.7c-2.6,0-4.3,1.7-4.3,4.3V39v47.7v34.7V169v21.7c0,2.6,1.7,4.3,4.3,4.3h242.7c2.6,0,4.3-1.7,4.3-4.3V169
		v-47.7V86.7V39V17.3C263.7,14.7,261.9,13,259.3,13z M255,82.3h-39c-12.1,0-21.7,9.5-21.7,21.7s9.5,21.7,21.7,21.7h39v39h-8.7
		c-33.4,0-60.7-27.3-60.7-60.7s27.3-60.7,60.7-60.7h8.7V82.3z M203,104c0-7.4,5.6-13,13-13v26C208.6,117,203,111.4,203,104z
		 M224.7,91H255v26h-30.3V91z M138,125.7c-12.1,0-21.7-9.5-21.7-21.7s9.5-21.7,21.7-21.7s21.7,9.5,21.7,21.7S150.1,125.7,138,125.7z
		 M73,104c0,7.4-5.6,13-13,13V91C67.4,91,73,96.6,73,104z M51.3,117H21V91h30.3V117z M21,125.7h39c12.1,0,21.7-9.5,21.7-21.7
		S72.1,82.3,60,82.3H21v-39h8.7c33.4,0,60.7,27.3,60.7,60.7S63,164.7,29.7,164.7H21V125.7z M21,173.3h8.7
		c38.1,0,69.3-31.2,69.3-69.3S67.8,34.7,29.7,34.7H21v-13h112.7v52.4c-14.7,2.2-26,14.7-26,29.9s11.3,27.7,26,29.9v52.4H21V173.3z
		 M142.3,186.3v-52.4c14.7-2.2,26-14.7,26-29.9s-11.3-27.7-26-29.9V21.7H255v13h-8.7c-38.1,0-69.3,31.2-69.3,69.3
		s31.2,69.3,69.3,69.3h8.7v13H142.3z"/>
</g>
<g id="badge">
</g>
</svg>
