<?xml version="1.0" encoding="utf-8"?>
<!-- Generator: Adobe Illustrator 21.0.0, SVG Export Plug-In . SVG Version: 6.00 Build 0)  -->
<svg version="1.1" id="Layer_2" xmlns="http://www.w3.org/2000/svg" xmlns:xlink="http://www.w3.org/1999/xlink" x="0px" y="0px"
	 viewBox="0 0 275.6 207.1" style="enable-background:new 0 0 275.6 207.1;" xml:space="preserve">
<g id="Layer_x0020_1">
	<path d="M32.7,4h40c3.1,0,5.7,2.5,5.7,5.5v188.3c0,3-2.5,5.5-5.7,5.5h-40c-3.1,0-5.7-2.5-5.7-5.5V9.5C27,6.5,29.5,4,32.7,4z
		 M92.7,180.4c-7.5,0-7.5-11,0-11h86.7c7.5,0,7.5,11,0,11C179.4,180.4,92.7,180.4,92.7,180.4z M92.7,156.3c-7.5,0-7.5-11,0-11h29.1
		c7.5,0,7.5,11,0,11C121.8,156.3,92.7,156.3,92.7,156.3z M92.7,132.1c-7.5,0-7.5-11,0-11h29.1c7.5,0,7.5,11,0,11H92.7z M229.8,146.7
		l21.1,30.3c4.2,6-5.2,12.2-9.4,6.2l-21.1-30.3c-7.2,3.7-15.4,5.7-24.1,5.7c-28.6,0-51.7-22.5-51.7-50.2c0-5,0.8-9.9,2.2-14.5h-46.2
		c-3.1,0-5.7-2.5-5.7-5.5V34.2c0-3,2.5-5.5,5.7-5.5h147.9c3.1,0,5.7,2.5,5.7,5.5v54.1c0,3-2.5,5.5-5.7,5.5h-2.6
		c1.4,4.6,2.2,9.5,2.2,14.5C248.1,123.2,241.4,137.1,229.8,146.7z M196.3,58.1c18.4,0,35.3,9.4,44.6,24.7h1.9V39.7H106.2v43.1h45.5
		C161.1,67.6,177.9,58.1,196.3,58.1z M196.3,69.2c-22.5,0-40.4,17.8-40.4,39.2c0,21.7,18.1,39.2,40.4,39.2
		c22.3,0,40.4-17.6,40.4-39.2C236.7,87,218.9,69.2,196.3,69.2z M67,15H38.4v177.3H67C67,192.3,67,15,67,15z"/>
</g>
</svg>
