<?xml version="1.0" encoding="utf-8"?>
<!-- Generator: Adobe Illustrator 21.0.0, SVG Export Plug-In . SVG Version: 6.00 Build 0)  -->
<svg version="1.1" id="Layer_3" xmlns="http://www.w3.org/2000/svg" xmlns:xlink="http://www.w3.org/1999/xlink" x="0px" y="0px"
	 viewBox="0 0 275.6 207.1" style="enable-background:new 0 0 275.6 207.1;" xml:space="preserve">
<style type="text/css">
	.st0{fill:none;stroke:#000000;stroke-width:6;stroke-linecap:round;stroke-linejoin:round;stroke-miterlimit:10;}
</style>
<line class="st0" x1="13.5" y1="71.5" x2="234.3" y2="71.5"/>
<line class="st0" x1="103.1" y1="147.1" x2="189.5" y2="147.1"/>
<line class="st0" x1="103.1" y1="107" x2="189.5" y2="107"/>
<path class="st0" d="M189.5,168.7v-127c0-15.3-11.9-27.7-27.2-27.7c-9.1,0-17.5,4.4-22.5,11.1c-3.5,4.6-5.9,10.4-5.9,16.6v6.7"/>
<path class="st0" d="M98.4,168.7v-127C98.4,26.4,86.6,14,71.3,14c-9.1,0-17.5,4.4-22.5,11.1c-3.5,4.6-5.9,10.4-5.9,16.6v6.7"/>
<path class="st0" d="M271,180.8c0,9.7-14.8,17.5-33,17.5S205,180.8,205,180.8s-14.8,17.5-33,17.5c-18.2,0-33-17.5-33-17.5
	s-14.9,17.5-33.1,17.5c-18.2,0-32.9-17.5-32.9-17.5s-14.8,17.5-33,17.5c-18.2,0-33-7.8-33-17.5"/>
</svg>
