<?xml version="1.0" encoding="utf-8"?>
<!-- Generator: Adobe Illustrator 24.1.1, SVG Export Plug-In . SVG Version: 6.00 Build 0)  -->
<svg version="1.1" id="Layer_1" xmlns="http://www.w3.org/2000/svg" xmlns:xlink="http://www.w3.org/1999/xlink" x="0px" y="0px"
	 viewBox="0 0 1000 1000" style="enable-background:new 0 0 1000 1000;" xml:space="preserve">
<style type="text/css">
	.st0{fill:#FFAA00;}
</style>
<path d="M326.7,139.3c-57.4,17.1-117.4,25.2-178.5,24.2c-10.3-0.2-20.4-0.1-31.2-0.1c-2.6,0-5.2,0-7.8,0c0,12.9,0,25.9,0,38.8
	c0,21.5,0,43.5,0,65.5c0,7.3,0,14.6,0.1,21.9c0.1,20.6,1,40.9,2.7,61c3.7,44.1,11.3,86.8,22.6,127.5
	c54.8,197,171.4,350.3,346.8,455.7c5.7,3.4,11.4,6.8,17.2,10.1c0.8,0.2,2.8,0.1,3.6-0.3c113.4-63.5,205.6-150.9,274.1-260
	c102.8-161,119.7-307.8,113.5-520.5c-1.2,0-2.5,0-3.7,0c-7.8-0.1-15.8-0.2-23.6,0.1C734.8,168.6,609.8,131.6,500.7,56
	c-0.4,0.3-0.8,0.6-1.2,0.9c-53.6,35.9-109.9,63-167.2,80.7C330.4,138.1,328.6,138.7,326.7,139.3z M488.3,109.2c8.2-5,15.2-5,23.4,0
	c93.9,58.2,205.8,89.7,332.7,93.5l6.8,0.2l0.5,6.3v0.5c5,69.7,1.2,138.4-11.2,204.2c-8.5,45-21,88.8-37.4,130.8
	c-7.5,19.1-15.7,37.8-24.8,56.1c-14.5,29.4-31.2,57.8-49.7,85s-39,53.1-61.2,77.6c-40.1,44.2-86.2,84-137.3,118.5
	c-6.5,4.4-13,8.7-19.7,12.9c-3.6,2.6-7.1,3.6-10.1,3.6l0,0l0,0c-0.1,0-0.2,0-0.2,0c-3.2-0.1-6-1.1-8.4-2.4c-0.7-0.4-1.4-0.8-2-1.2
	c-46.6-29.6-88.8-62.7-126.3-99c-2.2-2.1-4.4-4.3-6.6-6.4c-13-13-25.5-26.3-37.4-40c-15.8-18.3-30.6-37.3-44.2-57
	c-12-17.2-23.1-35-33.5-53.5c-37.1-65.8-64.3-138.9-81-218.3c-5.5-26.4-9.3-53.5-11.4-82.1c-0.2-2.9-0.4-5.7-0.6-8.6
	c-0.3-5.8-0.6-11.6-0.8-17.5c-0.3-8.8-0.5-17.8-0.5-26.9c0-17.3,0-34.5,0-52.2v-31.7h10.7l0,0c2,0,3.9,0,5.8,0
	c10.9-0.1,21.7-0.5,32.5-1.1c7.2-0.4,14.3-1,21.5-1.6c3.6-0.3,7.1-0.7,10.7-1.1c88.6-9.7,172.6-37.5,250.5-83.1
	C482.1,112.9,485.2,111.1,488.3,109.2z"/>
<path d="M498.6,821.2c0.5,0.3,0.8,0.6,1.1,0.7c0.2-0.1,0.4-0.3,0.6-0.5l0.3-0.2c188.3-136.9,286.6-328.9,284.5-555.5
	c-106.1-12.1-197.1-40-277.9-85.2c-5.8-3.2-9-3.2-15.1,0.2c-79.9,45-170.5,72.8-276.9,84.9C208.5,484.7,314.2,692,498.6,821.2z
	 M508.4,224.8c46.1,23.6,95.4,42.2,149.2,56.3c26.3,6.9,53.7,12.8,82.4,17.6l6.7,1.1l-0.4,6.7c-5.8,95-29,182.2-69,259.3
	c-40,77-98,146.3-172.3,205.8l-4.6,3.6l-4.7-3.5C350.6,662,260.2,488.5,253.8,307.6c0-0.2,0-0.5,0-0.7l-0.2-6.4l6.3-1.2
	c48-9.3,89.8-19.6,127.4-31.7s71-25.9,102.5-42.1l0.1-0.1c1.7-0.8,3.8-1.5,6-1.9C500,222.7,504.7,222.9,508.4,224.8z"/>
<path class="st0" d="M578.5,567L500,525.7L421.5,567l15-87.4L373,417.7l87.7-12.7l39.2-79.5l39.2,79.5l87.7,12.7l-63.5,61.9
	L578.5,567z M448.2,442.2l25.9,25.2L468,503l32-16.8l32,16.8l-6.1-35.6l25.9-25.2L516,437l-16-32.4L484,437L448.2,442.2z"/>
</svg>
