<?xml version="1.0" encoding="utf-8"?>
<!-- Generator: Adobe Illustrator 24.1.1, SVG Export Plug-In . SVG Version: 6.00 Build 0)  -->
<svg version="1.1" id="Layer_1" xmlns="http://www.w3.org/2000/svg" xmlns:xlink="http://www.w3.org/1999/xlink" x="0px" y="0px"
	 viewBox="0 0 1000 1000" style="enable-background:new 0 0 1000 1000;" xml:space="preserve">
<style type="text/css">
	.st0{fill:#FFAA00;}
</style>
<path d="M415,682c-47.4,0-82.1-28.5-90.9-75.2c-3.6-18.9-1.1-37.5,7.8-54.6c5.5-10.6,5.1-19.9,1.4-31
	c-38.5-114.9-76.4-229.9-114.5-344.9c-8.6-26-25.2-37.9-52.7-37.9c-17.1,0-34.3-0.3-51.4,0.1c-11.7,0.3-20.9-3.2-26.1-14.3
	c0-3.7,0-7.5,0-11.2c5.8-10.6,14.9-13.7,26.7-13.3c18.2,0.7,36.4-0.1,54.6,0.2c40.7,0.8,71.3,23.1,84.7,61.6
	c5,14.4,9.6,28.9,14.2,43.4c1.3,4.3,3.1,6.4,8.2,6.5c202.4,3,404.8,5.7,607.3,8.5c6.6,0.1,13.5,2.4,19.6,5.2
	c6.9,3.2,8.8,10.1,7.1,17.2c-16.3,67.4-31.7,135.1-49.5,202.1c-10.7,40.1-48.1,67.8-89.5,72c-131.6,14.1-263.3,27-394.9,41.6
	c-2,0.2-4.9,1.3-5.8,2.8c-9.3,17.4-13.9,35.3-4.7,54.3c9.1,18.7,24.2,28.1,44.7,28.3c120.8,0.3,241.6-0.2,362.3,0.2
	c5.9,0,12.3,1.4,17.5,4.1c7.3,3.7,9.6,11.7,7.6,20.1c-1.7,7.3-8,13-15.8,13.9L415,682z M868,258.4l-584.4-8.5c0,0,59,179,88.5,268.3
	c132.1-12.6,264.1-27,396.1-40.4c28.3-2.9,50.1-20.5,58-47.9C840.7,372.8,868,258.4,868,258.4z"/>
<path class="st0" d="M713.5,900.5c-47.4-0.1-85.7-38.2-86-85.6c-0.4-46.8,39.2-86.5,86.3-86.4c46.8,0.1,85.8,39,86.1,85.9
	C800.2,861.4,760.9,900.5,713.5,900.5z M713.4,861.9c26.3,0.1,47.3-20.7,47.6-47.1c0.2-25.8-21.2-47.6-47.1-47.8
	c-25.7-0.3-47.3,21.3-47.5,47.4C666.2,840.6,687.2,861.8,713.4,861.9z"/>
<path class="st0" d="M350.7,900.5c-48-0.2-85.9-38.6-85.5-86.6c0.4-47.2,39.1-85.6,86.2-85.4c47.2,0.2,86.1,39.5,85.8,86.8
	C436.8,862.3,397.8,900.7,350.7,900.5z M303.7,814.6c0,26.3,21,47.3,47.2,47.3c26.1,0,47.6-21.3,47.7-47.2
	c0.1-25.6-21.9-47.6-47.6-47.7C325.2,766.9,303.7,788.4,303.7,814.6z"/>
</svg>
