<?xml version="1.0" encoding="utf-8"?>
<!-- Generator: Adobe Illustrator 24.1.1, SVG Export Plug-In . SVG Version: 6.00 Build 0)  -->
<svg version="1.1" id="Layer_1" xmlns="http://www.w3.org/2000/svg" xmlns:xlink="http://www.w3.org/1999/xlink" x="0px" y="0px"
	 viewBox="0 0 1000 1000" style="enable-background:new 0 0 1000 1000;" xml:space="preserve">
<style type="text/css">
	.st0{fill:#FFAA00;}
</style>
<path d="M902.1,812.1v-8.6c-0.2-0.5-0.4-1.1-0.6-1.7c-2.1-7.3-7.9-12.4-15.6-13.6c-8.3-1.3-16.1,2.4-20.9,9.8l-0.2,0.4
	c-13.4,19-34.9,33.3-62.2,41.2c-23.5,6.8-49.4,8.5-72.9,4.6c-37.8-5.8-65.6-21.1-85.1-46.8c-4.8-6.4-10.8-9.9-16.8-9.9l0,0
	c-6.1,0-12.2,3.6-17.1,10.1c-11.1,14.6-25.1,25.9-41.6,33.6c-30,13.8-64.3,18.4-96.6,13c-35.5-5.9-64.9-22.9-85-49.2
	c-3.7-4.9-8.8-7.6-14.3-7.6l0,0c-6.1,0-12.1,3.3-16.4,8.9c-23.4,31.4-65.1,50-111.6,50c-0.4,0-0.8,0-1.2,0
	c-46.6-0.3-88.1-19.4-111-51.2c-3.8-5.2-8.7-6.9-12.1-7.4c-0.9-0.1-1.9-0.2-2.8-0.2c-4.3,0-8.5,1.4-12.2,4.2c-4.2,3.1-7,7.9-7.7,13
	c-0.7,4.8,0.6,9.5,3.5,13.4c7.5,9.7,16.5,20.7,26.9,28.7l0.1,0.1c66.7,52.4,167.6,52,234.7-0.8l7.4-5.8l7.8,5.1
	c81.9,53.7,161.4,53.7,243.2,0l7.7-5l7.3,5.5C687.9,884.5,747,895,812.3,877C854,865.9,883.4,844.6,902.1,812.1z"/>
<path class="st0" d="M902.1,666.2v-8.6c-0.2-0.5-0.4-1.1-0.6-1.7c-2.1-7.3-7.9-12.4-15.6-13.6c-8.2-1.3-16,2.4-20.9,9.8l-0.2,0.4
	c-28.3,40.3-89.8,53.5-136,45.7c-37.3-5.9-64.9-21.2-84.2-46.6c-4.8-6.4-10.8-9.9-16.8-9.9l0,0c-6.1,0-12.2,3.6-17.1,10.1
	c-11.1,14.6-25.1,25.9-41.6,33.6c-30,13.8-64.3,18.4-96.6,13c-35.5-5.9-64.9-22.9-85-49.2c-3.7-4.9-8.8-7.6-14.4-7.6l0,0
	c-6,0-11.7,3-15.7,8.3c-23.5,31.8-65.2,50.7-111.8,50.7c-0.4,0-0.7,0-1.1,0c-47.1-0.3-89.2-19.9-112.6-52.3
	c-3.2-4.3-7.6-5.8-10.7-6.2c-5.3-0.8-10.9,0.7-15.3,4c-8.2,6.1-10.3,17.6-4.8,25.2c6.8,9.2,16,20.8,27,29.4l0.1,0.1
	c65.5,52.2,168.8,52.1,235.2-0.3l7.4-5.8l7.8,5.1c81.9,53.7,161.5,53.7,243.2,0l7.7-5l7.3,5.5c51.1,38.6,110.1,49.1,175.5,31.1
	C854,720,883.4,698.7,902.1,666.2z"/>
<path d="M224.7,489.1c0,25.1,0,50.3,0,75.4c0.2,11.6,8.1,17.4,15.5,18.9c7.3,1.5,16.8-0.6,21.4-11c1-2.6,1.7-6.1,1.8-10
	c0.2-11,0.2-22.3,0.2-33.2c0-4.3,0-8.6,0-12.9v-13h317.8v13c0,4.2,0,8.4,0,12.6c0,11.8,0,22.9,0.1,34.2c0,2.1,0.1,4.5,0.5,6.1
	c3.6,12.3,13.8,15.4,21.5,14.4c7.9-1.1,16.5-6.8,16.7-19.6c0.1-51.9,0-104.6,0-155.6c0-65-0.1-132.3,0.1-198.5v-0.6
	c0.8-17.9,9.2-34.2,23-44.7c13.7-10.4,31.5-14.2,48.9-10.3c25.9,5.9,43.5,28.3,44.8,57.3c0.4,9.3,7.3,17.3,16,18.6
	c10,1.5,19.1-3.9,21.5-12.7c1.4-5.2,1.7-11.7,0.9-17.9c-9.2-62-57.7-87.5-101.6-85.3c-43.7,2.2-89.1,32.1-92.3,94.1
	c-0.1,20.7-0.1,41.8,0,62.1c0,11.3,0,22.7,0,34v13H263.4l0.1-13.1c0.1-10.8,0-21.8-0.1-32.4c-0.2-21-0.4-42.7,0.5-64.2
	c0.7-17.2,8.8-32.9,22.2-43.1c13.8-10.6,31.8-14.3,49.4-10.4c26,5.9,43.5,28.3,44.8,57.3c0.4,9.3,7.3,17.3,16,18.6
	c10,1.5,19.1-3.8,21.5-12.7c1.4-5.2,1.7-11.7,0.9-17.9c-9.2-61.6-57.3-87.3-100.9-85.5c-43.3,1.8-88.7,30.9-92.9,91.8
	C224.5,300.3,224.6,396.3,224.7,489.1z M263.9,357.1h316.8v106.1H263.9V357.1z"/>
</svg>
