<?xml version="1.0" ?><svg viewBox="0 0 64 64" xmlns="http://www.w3.org/2000/svg"><g data-name="3-home" id="_3-home"><path d="M21,27v6a1,1,0,0,0,1,1H42a1,1,0,0,0,1-1V27a1,1,0,0,0-1-1H22A1,1,0,0,0,21,27Zm2,1H41v4H23Z"/><path d="M63.542,22.16,44,9.552V6H54V8H51a1,1,0,0,0,0,2h3v4a1,1,0,0,0,2,0V6h1a1,1,0,0,0,1-1V1a1,1,0,0,0-1-1H41a1,1,0,0,0-1,1V5a1,1,0,0,0,1,1h1V8.262l-9.458-6.1a1,1,0,0,0-1.084,0l-31,20A1,1,0,0,0,0,23v8a1,1,0,0,0,1.542.84L5,29.609V63a1,1,0,0,0,1,1H58a1,1,0,0,0,1-1V29.609l3.458,2.231A1,1,0,0,0,64,31V23A1,1,0,0,0,63.542,22.16ZM42,2H56V4H42ZM23,62V45a3,3,0,0,1,3-3H38a3,3,0,0,1,3,3V62Zm34,0H43V45a5.006,5.006,0,0,0-5-5H26a5.006,5.006,0,0,0-5,5V62H7V28.319L32,12.19,57,28.319Zm5-32.835-29.458-19a1,1,0,0,0-1.084,0L2,29.165v-5.62L32,4.19,62,23.545Z"/><rect height="2" width="2" x="46" y="8"/></g></svg>