<?xml version="1.0" encoding="utf-8"?>
<!-- Generator: Adobe Illustrator 21.0.0, SVG Export Plug-In . SVG Version: 6.00 Build 0)  -->
<svg version="1.1" xmlns="http://www.w3.org/2000/svg" xmlns:xlink="http://www.w3.org/1999/xlink" x="0px" y="0px"
	 viewBox="0 0 275.6 207.1" style="enable-background:new 0 0 275.6 207.1;" xml:space="preserve">
<style type="text/css">
	.st0{fill:#FDA929;}
</style>
<g id="Layer_1">
	<path d="M266.6,180.4c0,7.1-5.8,12.9-12.9,12.9H150.2c-7.1,0-12.9-5.8-12.9-12.9c0-7.1,5.8-12.9,12.9-12.9h103.6
		C260.9,167.5,266.6,173.3,266.6,180.4z"/>
	<path d="M253.8,37.9c7.1,0,12.9-5.8,12.9-12.9s-5.8-12.9-12.9-12.9H98.5c-7.1,0-12.9,5.8-12.9,12.9s5.8,12.9,12.9,12.9H253.8z"/>
</g>
<g id="Layer_2">
	<path class="st0" d="M267.6,103.7c0,7.1-5.8,12.9-12.9,12.9H21.9c-7.1,0-12.9-5.8-12.9-12.9c0-7.1,5.8-12.9,12.9-12.9h232.9
		C261.9,90.9,267.6,96.6,267.6,103.7z"/>
</g>
</svg>
