<svg id="Layer_1" data-name="Layer 1" xmlns="http://www.w3.org/2000/svg" viewBox="0 0 1000 1000">
  <defs>
    <style>
      .cls-1 {
        fill: #f8a815;
      }
    </style>
  </defs>
  <g>
    <path class="cls-1" fill="#FDA929" d="M499.9941,238.0872c-77.4466-1.53-145.2536,65.5015-144.5446,142.9675C354.5844,427.65,377.65,472.7418,415.368,499.841a100.0828,100.0828,0,0,1,40.2129,67.1824h88.81a100.63,100.63,0,0,1,40.4374-67.3346,146.0246,146.0246,0,0,0,43.4665-50.3781,142.8242,142.8242,0,0,0,16.2511-66.67C646.153,304.9459,577.6917,236.4779,499.9941,238.0872Z"/>
    <path fill="#fff" d="M724.0263,312.9067c-29.7582-97.1586-122.2906-165.4768-224-164.819-97.0451-.5487-185.9843,61.0014-219.686,151.9852-37.0941,98.4151-3.229,211.2507,82.2953,272.678a10.0506,10.0506,0,0,1,3.9429,8.1644c0,18.8542,0,57.1756,0,76.1081H633.4715v-40c.228-1.5756-.6075-39.4782.6174-39.7363h0a10.84,10.84,0,0,1,3.6677-4.7839,235.7686,235.7686,0,0,0,52.4791-52.6057C733.2153,461.2722,745.942,382.1,724.0263,312.9067Zm-29.5406,75.7838c-1.3807,55.59-28.1585,109.5829-71.3155,144.5668-6.8108,5.64-14.6488,10.2682-19.8014,17.64a50.2494,50.2494,0,0,0-9.538,23.8347c-.7182,3.6544-.22,37.8566-.3593,42.2913H406.578V580.9153A50.9181,50.9181,0,0,0,405.2,569.1422a49.7121,49.7121,0,0,0-19.1144-28.7955c-44.6957-32.0811-74.5977-83.6918-79.6809-138.5341-11.45-114.5444,78.7307-213.9964,193.6219-213.7252C609.4123,187.7829,698.1752,279.3476,694.4857,388.6905Z"/>
    <rect fill="#fff" x="375.5638" y="688.7681" width="248.8723" height="32.6809"/>
    <rect fill="#fff" x="385.9521" y="753.7894" width="228.0957" height="32.6809"/>
    <rect fill="#fff" x="423.1463" y="819.2362" width="153.7074" height="32.6809"/>
  </g>
</svg>
