<svg id="Layer_1" data-name="Layer 1" xmlns="http://www.w3.org/2000/svg" viewBox="0 0 1000 1000">
  <defs>
    <style>
      .cls-1 {
        fill: #010101;
      }

      .cls-2 {
        fill: #f8a815;
      }
    </style>
  </defs>
  <g>
    <path class="cls-1" d="M318.0535,432.8118,288.3422,390.379q-20.7221,7.2186-40.7893,15.7888l28.2387,40.3284q4.0711-1.4139,8.1567-2.7747C295.2332,439.7736,306.6518,436.1091,318.0535,432.8118Z"/>
    <path class="cls-1" d="M554.1285,745.4745a61.3919,61.3919,0,0,0-13.306-16.0447c-1.2947-1.1168-2.38-1.9975-3.4137-2.77-1.6007-1.1981-3.28-2.3322-4.9963-3.3755-1.3082-.7956-2.7463-1.5845-4.4006-2.4145-.9266-.4666-1.8675-.91-2.8037-1.3234l-.8816-.4016a62.8046,62.8046,0,0,0-48.6962.001l-.2362.109c-.2123.0985-.4246.195-.6392.29-.9142.4026-1.8656.852-2.8018,1.3225-1.6481.8271-3.0886,1.617-4.4087,2.4192-1.7069,1.0366-3.3855,2.1707-4.9892,3.3708-1.0289.7678-2.1151,1.6495-3.4233,2.7778a61.3263,61.3263,0,0,0-13.305,16.0466c-.48.83-.93,1.6456-1.3315,2.4164a61.8271,61.8271,0,0,0-7.081,28.9012,62.3375,62.3375,0,0,0,16.2507,42.0637c1.344,1.48,2.7726,2.9079,4.2462,4.2466a62.4862,62.4862,0,0,0,84.1323.0038c1.4773-1.3415,2.9059-2.77,4.25-4.25a62.3414,62.3414,0,0,0,16.25-42.0646,61.8227,61.8227,0,0,0-7.079-28.8984C555.0628,747.1278,554.6143,746.3131,554.1285,745.4745Z"/>
    <path class="cls-2" fill="#FDA929" d="M636.4528,270.1849a547.909,547.909,0,0,0-272.9246-.0064,538.9418,538.9418,0,0,0-79.4336,27.2907l26.0447,37.1955q29.9214-8.6413,60.5133-14.5172a693.0835,693.0835,0,0,1,258.711.003q30.5826,5.85,60.5124,14.5187l26.0337-37.18A539.0732,539.0732,0,0,0,636.4528,270.1849Z"/>
    <path class="cls-2" fill="#FDA929" d="M499.98,579.4857q8.9827,0,17.9525.7443l80.3559-114.76a639.2827,639.2827,0,0,0-196.56-.0026l80.3544,114.7581Q491.0139,579.4869,499.98,579.4857Z"/>
    <path class="cls-2" fill="#FDA929" d="M500,408.91a687.6589,687.6589,0,0,1,129.3634,12.18l30.6233-43.7346c-2.7855-.7255-5.5716-1.45-8.3718-2.1379q-26.2555-6.4538-53.3268-10.6864a639.2827,639.2827,0,0,0-196.56-.0026q-27.0535,4.2195-53.3279,10.6852c-2.8.6883-5.5863,1.4122-8.3718,2.1377l30.624,43.7356A687.6539,687.6539,0,0,1,500,408.91Z"/>
    <path class="cls-1" d="M260.7645,350.9947,210.089,278.6221l2.3748-1.3186A594.7568,594.7568,0,0,1,719.886,245.1893c5.7652,2.3022,11.5705,4.7277,17.2524,7.2086,5.6886,2.4833,11.4193,5.0943,17.0343,7.7608,2.7989,1.33,5.6361,2.7047,8.4321,4.0874s5.6121,2.8037,8.3718,4.2237c5.5366,2.8486,11.1086,5.8287,16.562,8.8571l2.3743,1.3187L739.25,351q13.6161,5.0847,27.0663,10.746,6.6481,2.8119,13.2175,5.7639L850.6117,266c-12.9206-8.5568-26.3251-16.7427-39.8807-24.3528q-1.7814-1.0005-3.57-1.989-3.2358-1.7894-6.4928-3.5414-1.7514-.9425-3.51-1.8738c-4.5852-2.43-9.1282-4.77-13.504-6.9546-4.1376-2.0669-8.5257-4.1936-13.0411-6.3222q-2.4183-1.1388-4.8481-2.2586-4.0118-1.85-8.0514-3.65c-5.2364-2.3256-10.575-4.61-15.8668-6.7883q-2.6622-1.0967-5.3368-2.1692c-3.5514-1.4248-7.1669-2.8372-10.7461-4.1974a633.3528,633.3528,0,0,0-72.0474-22.55c-11.3505-2.819-22.9362-5.3554-34.4339-7.539q-2.8974-.5508-5.8053-1.0743-3.3894-.6109-6.7931-1.1829c-3.6911-.6239-7.3018-1.2034-10.7318-1.7231q-2.9333-.4438-5.877-.862a643.6017,643.6017,0,0,0-90.0958-6.336,637.0673,637.0673,0,0,0-170.6628,23.1719c-3.7484,1.0423-7.5145,2.1271-11.1936,3.2244-3.7054,1.104-7.4429,2.2558-11.1081,3.4224-10.98,3.494-22.013,7.3424-32.7907,11.4379-5.374,2.0426-10.7853,4.184-16.0824,6.3647q-2.6621,1.0967-5.3128,2.2161c-3.5175,1.4855-7.0675,3.0231-10.5516,4.57s-7.0005,3.1465-10.4525,4.7549c-3.4611,1.6127-6.9433,3.2741-10.35,4.937-3.3961,1.6577-6.8433,3.3789-10.2461,5.1168-3.3855,1.7294-6.7969,3.5108-10.14,5.2952-3.3267,1.7752-6.7022,3.616-10.0328,5.4706-3.3033,1.84-6.6415,3.7393-9.9214,5.6446-2.3958,1.3918-4.9633,2.91-7.8487,4.6421q-1.9306,1.1589-3.8513,2.33c-6.7878,4.14-13.5211,8.4187-20.0469,12.7389l71.0919,101.53q6.5672-2.94,13.2039-5.7579Q247.133,356.0575,260.7645,350.9947Z"/>
    <path class="cls-1" d="M715.4868,443.5348q4.3764,1.4538,8.7369,2.9664l26.5687-37.9443q-20.0086-8.6315-40.703-15.9107l-28.1352,40.18C693.1633,436.0683,704.39,439.6631,715.4868,443.5348Z"/>
    <path class="cls-1" d="M540.8505,634.3437l-1.6208-.39a168.5192,168.5192,0,0,0-78.45-.0115l-1.6208.3892L348.4,476.1526q-21.9277,5.3893-43.2423,12.2839L443.1,685.4381c2.73-1.4028,5.5308-2.7128,8.3522-3.9062h.0005c2.316-.9792,4.6989-1.9,7.0823-2.74,2.38-.8367,4.8185-1.61,7.2483-2.3a125.4869,125.4869,0,0,1,91.1194,8.9676L694.8572,488.4412q-21.306-6.8825-43.2421-12.2848Z"/>
  </g>
</svg>
