<svg id="Layer_1" data-name="Layer 1" xmlns="http://www.w3.org/2000/svg" viewBox="0 0 1000 1000">
  <defs>
    <style>
      .cls-1 {
        fill: #f8a815;
      }
    </style>
  </defs>
  <g>
    <polygon fill="#fff" points="829.603 514.675 829.603 554.653 776.166 554.653 776.166 554.589 706.166 554.589 706.166 594.589 723.298 594.589 723.298 594.653 829.603 594.653 829.603 594.675 869.603 594.675 869.603 514.675 829.603 514.675"/>
    <rect fill="#fff" x="612.0279" y="554.557" width="70" height="40" transform="translate(1294.0558 1149.114) rotate(180)"/>
    <rect fill="#fff" x="317.5545" y="554.541" width="70" height="40" transform="translate(705.109 1149.0821) rotate(180)"/>
    <polygon fill="#fff" points="294.172 554.477 224.172 554.477 224.172 554.654 170.398 554.654 170.398 514.676 130.398 514.676 130.398 594.676 170.398 594.676 170.398 594.654 262.703 594.654 262.703 594.477 294.172 594.477 294.172 554.477"/>
    <polygon fill="#fff" points="829.603 614.673 829.603 654.651 776.166 654.651 776.166 654.587 706.166 654.587 706.166 694.587 724.32 694.587 724.32 694.651 829.603 694.651 829.603 694.673 869.603 694.673 869.603 614.673 829.603 614.673"/>
    <rect fill="#fff" x="612.0279" y="654.5554" width="70" height="40" transform="translate(1294.0558 1349.1107) rotate(180)"/>
    <rect fill="#fff" x="317.5545" y="654.5394" width="70" height="40" transform="translate(705.109 1349.0788) rotate(180)"/>
    <polygon fill="#fff" points="294.172 654.476 224.172 654.476 224.172 654.652 170.398 654.652 170.398 614.675 130.398 614.675 130.398 694.675 170.398 694.675 170.398 694.652 261.681 694.652 261.681 694.476 294.172 694.476 294.172 654.476"/>
    <polygon class="cls-1" fill="#FDA929" points="443.821 454.759 179.137 454.759 179.137 454.759 443.821 454.759 443.821 454.347 454.237 344.691 443.821 454.347 443.821 454.759"/>
    <polygon class="cls-1" fill="#FDA929" points="240.117 404.759 398.306 404.759 408.774 294.546 262.141 294.546 240.117 404.759"/>
    <polygon class="cls-1" fill="#FDA929" points="555.57 454.759 555.569 454.041 555.57 454.759 820.864 454.759 820.864 454.759 555.57 454.759"/>
    <polygon class="cls-1" fill="#FDA929" points="759.884 404.759 737.86 294.546 591.09 294.546 601.287 404.759 759.884 404.759"/>
    <path fill="#fff" d="M869.647,494.7589,811.6538,204.5464H188.3462L130.353,494.7589H443.8207V795.4536H556.18l-.5384-300.6947ZM463.7488,244.5464,443.8207,454.3472v.4117H179.1372L221.144,244.5464Zm91.8188,208.7795L536.25,244.5464H778.8569l42.0069,210.2125H555.57Z"/>
    <polygon fill="#fff" points="829.603 714.913 829.603 754.89 776.166 754.89 776.166 754.827 706.166 754.827 706.166 794.827 723.298 794.827 723.298 794.89 829.603 794.89 829.603 794.913 869.603 794.913 869.603 714.913 829.603 714.913"/>
    <rect fill="#fff" x="612.0279" y="754.7947" width="70" height="40" transform="translate(1294.0558 1549.5894) rotate(180)"/>
    <rect fill="#fff" x="317.5545" y="754.7787" width="70" height="40" transform="translate(705.109 1549.5574) rotate(180)"/>
    <polygon fill="#fff" points="294.172 754.715 224.172 754.715 224.172 754.892 170.398 754.892 170.398 714.914 130.398 714.914 130.398 794.914 170.398 794.914 170.398 794.892 243.298 794.892 243.298 794.715 294.172 794.715 294.172 754.715"/>
  </g>
</svg>
