<?xml version="1.0" encoding="utf-8"?>
<!-- Generator: Adobe Illustrator 21.0.0, SVG Export Plug-In . SVG Version: 6.00 Build 0)  -->
<svg version="1.1" id="Layer_1" xmlns="http://www.w3.org/2000/svg" xmlns:xlink="http://www.w3.org/1999/xlink" x="0px" y="0px"
	 viewBox="0 0 1000 1000" style="enable-background:new 0 0 1000 1000;" xml:space="preserve">
<style type="text/css">
	.st0{fill:#F8A815;}
</style>
<g>
	<path d="M794.3,470.6l45.7-1c-2.2-24.6-7-48.9-14.4-72.5l-42.6,16.7C788.6,432.3,792.4,451.3,794.3,470.6z"/>
	<path d="M766.4,371.2l42.7-16.5c-10.3-22.5-22.9-43.7-37.7-63.4l-34.5,30.2C748.3,337,758.2,353.7,766.4,371.2z"/>
	<path d="M841,515.5l-45.7,1c-2,35.7-10.3,70.8-24.7,103.6c-65.8,150.7-240.2,219-389.6,152.7S163.9,530.6,229.6,379.9
		s240.2-219,389.6-152.7c9.2,4.1,9.4,3.9,17,8.2l-9.1,20.9l60.1-23.6l-23.4-60.6l-9.2,21.1c-5.6-2.9-11.3-5.6-17.1-8.1
		c-172.4-76.4-373.5,2.6-449.3,176.5s2.6,376.7,175,453.1s373.5-2.6,449.3-176.5C829.4,599.4,839.1,557.9,841,515.5L841,515.5z"/>
</g>
<path fill="#FDA929" class="st0" d="M668.7,329.9c-93.2-94-244.2-94-337.4,0s-93.2,246.3,0,340.3s244.2,94,337.4,0c44.7-45.1,69.9-106.3,69.9-170.1
	C738.7,436.2,713.6,374.9,668.7,329.9z M480.6,582.6H376.4v-28.7l34.3-35.1c12.2-12.6,20.7-22.3,25.5-29c4.6-6.2,7.1-13.7,7.2-21.5
	c0-7.6-2-13-6-16.1c-4-3.1-9.6-4.7-16.9-4.7c-11.9,0.1-23.8,1.1-35.6,2.9l-5.8,0.7l-1.7-26.3c16-4.9,32.7-7.4,49.4-7.4
	c34.1,0,51.1,15.5,51.1,46.4c0,12.1-2.6,22.6-7.8,31.4c-5.2,8.8-14.6,19.6-28.3,32.2l-28,25.5h66.7L480.6,582.6z M623.6,555.8h-15.3
	v26.8h-33.6v-26.8h-68.2V530l39.7-109.6h37L540,526.3h34.6v-45.4h33.6v45.4h15.3V555.8z"/>
</svg>
