<?xml version="1.0" encoding="utf-8"?>
<!-- Generator: Adobe Illustrator 21.0.0, SVG Export Plug-In . SVG Version: 6.00 Build 0)  -->
<svg version="1.1" id="Layer_1" xmlns="http://www.w3.org/2000/svg"
	xmlns:xlink="http://www.w3.org/1999/xlink" x="0px" y="0px"
	viewBox="0 0 1000 1000" style="enable-background:new 0 0 1000 1000;" xml:space="preserve">
<style type="text/css">
	.st0{fill:#FFAA00;}
</style>
<g id="Layer_2">
	<path class="st0" fill="#FDA929" d="M657.9,760.3c41.2-35.3,64.5-84.4,64.7-135.9l0,0C722.4,675.9,699,725.1,657.9,760.3z"/>
	<path class="st0" fill="#FDA929" d="M468.2,814.4c-7.3-0.9-14.4-2.2-21.5-3.8C453.8,812.2,460.9,813.5,468.2,814.4z"/>
	<path class="st0" fill="#FDA929" d="M657.9,760.3c-7.5,6.5-15.6,12.6-24,18.1C642.3,772.9,650.3,766.8,657.9,760.3z"/>
	<path class="st0" fill="#FDA929" d="M556.9,810.7c-7.2,1.6-14.3,2.9-21.5,3.8C542.6,813.5,549.7,812.2,556.9,810.7z"/>
	<path fill="#fff" d="M511.7,166.4c-2.2-8.4-10.1-14.7-19.7-15.3h-0.8c-11.2-1.2-21.7,5.7-24.2,15.9c-12.4,66.8-65.8,150.4-117.3,231
		c-55.2,86.4-107.2,168-107.2,226.5c0,123.8,116.3,224.3,259.3,224.3S761,748.2,761,624.5c0-59.3-58.4-142.1-120.3-229.9
		C584.4,314.7,526.1,231.9,511.7,166.4z M501.8,816.7C380,816.7,281,730.5,281,624.5c0-50.5,49.7-128.7,102.8-211.5
		C425,348.5,467.3,282.2,490.4,222c25.8,59.4,72.1,125.1,117.2,189c56.5,80.1,114.9,163,114.9,213.6
		C722.5,730.5,623.5,816.7,501.8,816.7z"/>
	<path class="st0"  fill="#FDA929" d="M564.8,555c-41.7,17.3-89.5,17.3-131.1,0c-12.3-5.6-25.8-8.4-39.5-8c-11.8-0.3-23.4,1.6-34.1,5.9
		c-15.5,29.3-25.8,54.7-25.8,71.6c0,79.3,75.1,143.8,167.7,143.8s167.7-64.5,167.7-143.8c0-15.9-11.8-41.5-28.8-70.8
		c-11.4-4.9-23.9-7.1-36.6-6.8C590.6,546.6,577,549.3,564.8,555z"/>
</g>
</svg>