<?xml version="1.0" encoding="utf-8"?>
<!-- Generator: Adobe Illustrator 24.1.1, SVG Export Plug-In . SVG Version: 6.00 Build 0)  -->
<svg version="1.1" id="Layer_1" xmlns="http://www.w3.org/2000/svg" xmlns:xlink="http://www.w3.org/1999/xlink" x="0px" y="0px"
	 viewBox="0 0 1000 1000" style="enable-background:new 0 0 1000 1000;" xml:space="preserve">
<style type="text/css">
	.st0{fill:#FFAA00;}
</style>
<rect x="387" y="218.4" fill="#FDA929" class="st0" width="394.1" height="394.1"/>
<polygon points="868.6,700 806.1,700 806.1,665 833.6,665 833.6,637.5 868.6,637.5 "/>
<path d="M768.2,700h-97.5v-35h97.5V700z M632.8,700h-97.5v-35h97.5V700z M497.4,700h-97.5v-35h97.5V700z"/>
<polygon points="362,700 299.5,700 299.5,637.5 334.5,637.5 334.5,665 362,665 "/>
<path d="M334.5,599.6h-35v-97.5h35V599.6z M334.5,464.2h-35v-97.5h35V464.2z M334.5,328.8h-35v-97.5h35V328.8z"/>
<polygon points="334.5,193.4 299.5,193.4 299.5,130.9 362,130.9 362,165.9 334.5,165.9 "/>
<path d="M768.2,165.9h-97.5v-35h97.5V165.9z M632.8,165.9h-97.5v-35h97.5V165.9z M497.4,165.9h-97.5v-35h97.5V165.9z"/>
<polygon points="868.6,193.4 833.6,193.4 833.6,165.9 806.1,165.9 806.1,130.9 868.6,130.9 "/>
<path d="M868.6,599.6h-35v-97.5h35V599.6z M868.6,464.2h-35v-97.5h35V464.2z M868.6,328.8h-35v-97.5h35V328.8z"/>
<path d="M795.3,754.8l-24.8,24.7l33.8,33.8H368.6l33.8-33.8l-24.7-24.7c-18.4,18.7-60.1,59.8-76,76c15.3,15.6,58.3,58,76,76
	l24.8-24.7l-33.8-33.8h435.8l-33.8,33.8l24.7,24.7c18.4-18.7,60.1-59.8,76-76C856,815.2,813,772.8,795.3,754.8z"/>
<path d="M238.3,629.4l-24.7-24.8l-33.8,33.8V202.6l33.8,33.8l24.7-24.7c-18.7-18.4-59.8-60.1-76-76c-15.6,15.3-58,58.3-76,76
	l24.7,24.8l33.8-33.8v435.8L111,604.7l-24.7,24.7c18.7,18.4,59.8,60.1,76,76C178,690.1,220.3,647.1,238.3,629.4z"/>
</svg>
