<?xml version="1.0" encoding="utf-8"?>
<!-- Generator: Adobe Illustrator 24.1.1, SVG Export Plug-In . SVG Version: 6.00 Build 0)  -->
<svg version="1.1" id="Layer_1" xmlns="http://www.w3.org/2000/svg" xmlns:xlink="http://www.w3.org/1999/xlink" x="0px" y="0px"
	 viewBox="0 0 1000 1000" style="enable-background:new 0 0 1000 1000;" xml:space="preserve">
<style type="text/css">
	.st0{fill:#FFAA00;}
</style>
<path fill="#fff" d="M33.6,792c25.2-0.2,50.4-0.6,75.5-0.5c6.2,0,9-2.1,11.1-7.9c25.7-72.5,51.7-145,77.6-217.4c0.9-2.5,1.4-5.1,2.4-9
	c-10.1,0-19.3,0-29.2,0c0-13.1,0-25,0-37.5c27.4,0,54.6,0,83,0c-1,3.3-1.7,6.3-2.7,9.3c-34.6,97-69.3,194-103.7,291.1
	c-2.4,6.8-5.6,9.3-13,9.2c-33.7-0.6-67.4-0.6-101-0.8C33.6,816.3,33.6,804.2,33.6,792z"/>
<path fill="#fff" d="M966.4,828.5c-35.2,0.2-70.4,0.6-105.6,0.1c-2.8,0-6.8-5.1-8.1-8.7c-22.3-61.8-44.3-123.8-66.4-185.7
	c-12.4-34.8-24.9-69.6-37.3-104.4c-1.1-3.1-2-6.2-3.3-10.1c28.2,0,55.3,0,83.2,0c0,11.9,0,23.8,0,36.9c-9.2,0-18.4,0-29.3,0
	c1.2,4.5,1.8,7.6,2.9,10.5c25.7,71.9,51.5,143.7,77,215.7c2.3,6.5,5.4,8.8,12.3,8.8c24.9-0.2,49.8,0.2,74.6,0.4
	C966.4,804.2,966.4,816.3,966.4,828.5z"/>
<path fill="#fff" d="M499.6,382c-31.8-0.1-57.8-26.5-57.4-58.2c0.4-31.4,26.3-56.9,57.8-56.9c31.9,0,58.1,26,57.9,57.7
	C557.7,356.4,531.6,382.1,499.6,382z M499.7,344.2c10.8,0.1,19.9-8.6,20.3-19.3c0.3-10.5-8.6-19.8-19.3-20.2
	c-11.2-0.3-20.7,8.7-20.7,19.6C480,335,489,344.1,499.7,344.2z"/>
<path fill="#fff" d="M660.1,556.9l33.2,157c1.1,5,2.1,10,3.2,15c4.3,20.3,8.6,40.7,12.9,61.5c-140.1,0-418.6,0-418.6,0l49.7-233.5h66.1
	l-24.3-37.1h-72.6c0,0-44,205.4-66.1,308.6c171.2,0,341.6,0,512.9,0c-22.2-103.4-44.2-206.1-66.2-308.8c-24.7,0-72.7,0-72.7,0
	l-24.3,37.3"/>
<path fill="#fff" d="M499.3,626.7c-69.5-97.4-173.7-217.5-148.8-345c57-190.1,345.1-117.9,299.6,79.2C633.8,451.8,550.7,552.8,499.3,626.7z
	 M500.2,565.6c52-80.1,127.6-168.9,113.8-269.9C582.6,163,375.6,189.3,383.7,327.1C393.6,417,449.1,493.6,500.2,565.6z"/>
<path fill="#FDA929" class="st0" d="M630.1,586.9h-55.9l-75.6,102.3l-73.1-102.3h-55.1l-36.7,173.5c139.4,0,332.6,0,332.6,0L630.1,586.9z"/>
</svg>
